<?xml version="1.0" standalone="no"?>
<!DOCTYPE svg PUBLIC "-//W3C//DTD SVG 1.1//EN" "http://www.w3.org/Graphics/SVG/1.1/DTD/svg11.dtd" >
<!--
2013-9-30: Created.
-->
<svg>
<metadata>
Created by iconfont
</metadata>
<defs>

<font id="iconfont" horiz-adv-x="1024" >
  <font-face
    font-family="iconfont"
    font-weight="500"
    font-stretch="normal"
    units-per-em="1024"
    ascent="896"
    descent="-128"
  />
    <missing-glyph />
    
    <glyph glyph-name="task" unicode="&#58962;" d="M127.772444-55.296L127.431111 789.617778h171.633778v-35.043556c0-39.253333 31.744-71.224889 70.826667-71.224889h283.704888a71.111111 71.111111 0 0 1 70.769778 71.224889V789.617778l171.235556 0.341333 0.341333-844.970667-768.170667-0.284444z m525.710223 880.071111l0.113777-70.542222-283.648 0.341333V824.718222L369.777778 825.116444l283.648-0.398222z m242.005333 33.336889h-181.077333C702.179556 880.64 679.708444 896 653.653333 896H369.834667c-25.998222 0-48.583111-15.36-60.871111-37.888h-181.475556C88.405333 858.112 56.888889 824.32 56.888889 782.791111v-833.194667c0-41.585778 31.687111-75.377778 70.599111-75.377777H896c39.025778 0 70.542222 33.792 70.542222 75.377777V782.734222c-0.056889 41.813333-31.914667 75.491556-70.997333 75.377778zM458.752 546.133333L377.514667 461.653333l-45.511111 47.388445a27.136 27.136 0 0 1-39.480889 0 29.468444 29.468444 0 0 1-8.078223-20.48c0-7.68 2.844444-15.018667 8.078223-20.48L357.831111 400.042667a27.192889 27.192889 0 0 1 39.367111 0L498.176 505.173333a29.468444 29.468444 0 0 1 8.135111 20.48 29.468444 29.468444 0 0 1-8.135111 20.48 27.136 27.136 0 0 1-39.424 0z m255.658667-40.391111H569.742222c-13.824 0-25.144889-14.620444-25.144889-32.654222 0-18.033778 11.264-32.597333 25.144889-32.597333h144.668445c13.824 0 25.144889 14.563556 25.144889 32.597333 0 18.033778-11.320889 32.654222-25.144889 32.654222z m-0.170667-268.401778H569.571556c-13.824 0-25.144889-14.620444-25.144889-32.654222 0-18.033778 11.377778-32.597333 25.144889-32.597333h144.668444c13.824 0 25.144889 14.563556 25.144889 32.597333 0 18.033778-11.320889 32.654222-25.144889 32.654222z m-326.883556 72.533334c-55.751111 0-100.977778-47.160889-100.977777-105.187556S331.662222 99.555556 387.356444 99.555556c55.751111 0 100.977778 47.160889 100.977778 105.130666 0 58.026667-45.226667 105.187556-100.977778 105.187556z m0-152.291556c-25.031111 0-45.283556 21.105778-45.283555 47.104 0 26.055111 20.309333 47.160889 45.283555 47.160889 25.031111 0 45.283556-21.219556 45.283556-47.160889 0-25.998222-20.309333-47.104-45.283556-47.104z"  horiz-adv-x="1024" />

    
    <glyph glyph-name="xinhao" unicode="&#58890;" d="M192.437 79.778c-23.575 0-42.863 19.288-42.863 42.863v64.294c0 23.575 19.288 42.863 42.863 42.863s42.863-19.288 42.863-42.863v-64.294c0.005-23.57-19.284-42.863-42.863-42.863zM406.754 79.778c-23.575 0-42.862 19.288-42.862 42.863v171.458c0 23.575 19.288 42.862 42.862 42.862s42.863-19.288 42.863-42.862v-171.458c0.005-23.57-19.284-42.863-42.863-42.863zM621.080 79.778c-23.575 0-42.862 19.288-42.862 42.863v342.912c0 23.575 19.288 42.862 42.862 42.862s42.862-19.288 42.862-42.862v-342.908c0-23.575-19.288-42.867-42.862-42.867zM835.397 79.778c-23.575 0-42.863 19.288-42.863 42.863v557.234c0 23.575 19.288 42.863 42.863 42.863s42.863-19.288 42.863-42.863v-557.229c0-23.575-19.288-42.867-42.863-42.867z"  horiz-adv-x="1024" />

    
    <glyph glyph-name="xinhao1" unicode="&#58936;" d="M781.66217017 687.32482934c-9.29937744 0-17.25402856-3.29260253-23.82440138-9.88769579-6.61486816-6.59014916-9.88769508-14.52008057-9.88769579-23.78979492v-539.29467726c0-9.26971435 3.27282691-17.30346656 9.88769579-23.78979492 6.57531762-6.59014916 14.52502465-9.88769508 23.82440138-9.88769579 9.29937744 0 17.26391602 3.29754663 23.8244021 9.88769579 6.60992408 6.48632836 9.88769508 14.52008057 9.88769507 23.78979492V653.64733863c0 9.26971435-3.27777099 17.19964576-9.88769507 23.78979492-6.56048608 6.59509253-14.52502465 9.88769508-23.8244021 9.88769579M511.99505592 485.14123559c-9.29937744 0-17.23425293-3.29260253-23.84417701-9.88769579-6.57531762-6.59014916-9.86792016-14.52008057-9.86792016-23.89361572v-337.00726271c0-9.26971435 3.29754663-17.30346656 9.86792016-23.78979492 6.60992408-6.59014916 14.54479957-9.88769508 23.84417701-9.88769579 9.3092649 0 17.24414039 3.29754663 23.85406517 9.88769579 6.56048608 6.48632836 9.86792016 14.52008057 9.86792016 23.78979492V451.35992407c0 9.37353516-3.30743408 17.30346656-9.86792016 23.89361573-6.60992408 6.59509253-14.54479957 9.88769508-23.85406517 9.88769579m0 67.35992408c27.89318824 0 51.76208497-9.78387428 71.50286865-29.55926514 19.75561523-19.77539086 29.62353539-43.56518578 29.6235354-71.47814965v-337.11108351c0-27.90801978-9.86792016-51.70275879-29.6235354-71.47814965-19.74572778-19.77539086-43.60968041-29.66308594-71.50286865-29.66308594-27.89318824 0-51.74725342 9.88769508-71.48309303 29.66308594-19.75561523 19.77539086-29.63342286 43.57012915-29.63342285 71.47814965V451.46374488c0 27.91296386 9.87780761 51.70275879 29.63342285 71.47814965 19.73583961 19.77539086 43.58990479 29.56420922 71.48309303 29.56420922M242.33782983 282.85382103999996c-9.3092649 0-17.26391602-3.29754663-23.83428955-9.88769579-6.60003662-6.59509253-9.89758325-14.52502465-9.89758325-23.7947383v-134.81872558c0-9.27465844 3.29754663-17.30346656 9.89758325-23.794739 6.57531762-6.59014916 14.52502465-9.88769508 23.83428955-9.88769508 9.29937744 0 17.25402856 3.29754663 23.81451392 9.88769508 6.62475562 6.48632836 9.89758325 14.52008057 9.89758325 23.78979492V249.18127441000001c0 9.26971435-3.27282691 17.20458984-9.89758325 23.79473902-6.56048608 6.59014916-14.51513648 9.88769508-23.81451392 9.88769506m0 67.45880151c27.92285133 0 51.74725342-9.88769508 71.49298048-29.66308594 19.74572778-19.77539086 29.62353539-43.56518578 29.62353539-71.47814965v-134.81872558c0-27.91790796-9.87780761-51.70770288-29.62353539-71.48309303-19.74572778-19.77539086-43.57012915-29.66308594-71.49298048-29.66308593-27.9327395 0-51.76208497 9.88769508-71.51275683 29.66308593C151.08923339 62.64990258 141.21142578 86.44464086999994 141.21142578 114.35266136999996V249.18127441000001c0 27.91296386 9.87780761 51.70770288 29.61364722 71.48309302 19.75561523 19.77539086 43.58001733 29.66308594 71.51275683 29.66308594M781.66217017 754.78857422c27.92285133 0 51.74725342-9.88769508 71.4929812-29.66308594C872.91076661 705.44897484 882.78857422 681.5553591299999 882.78857422 653.64733863v-539.29467726c0-27.90801978-9.87780761-51.70275879-29.63342286-71.47814965-19.74572778-19.77539086-43.57012915-29.66308594-71.49298119-29.66308594-27.91296386 0-51.73736596 9.88769508-71.48309303 29.66308594-19.75561523 19.77539086-29.63342286 43.57012915-29.63342284 71.47814965V653.64733863c0 27.90801978 9.87780761 51.80657959 29.63342284 71.47814965 19.74572778 19.77539086 43.57012915 29.66308594 71.48309303 29.66308594"  horiz-adv-x="1024" />

    
    <glyph glyph-name="38" unicode="&#59030;" d="M486.4 149.33333300000004h-85.333333V362.66666699999996c0 23.466667 19.2 42.666667 42.666666 42.666666s42.666667-19.2 42.666667-42.666666v-213.333334zM347.733333 149.33333300000004h-85.333333v128c0 23.466667 19.2 42.666667 42.666667 42.666667s42.666667-19.2 42.666666-42.666667v-128zM622.933333 149.33333300000004h-85.333333V448c0 23.466667 19.2 42.666667 42.666667 42.666667s42.666667-19.2 42.666666-42.666667v-298.666667zM761.6 149.33333300000004h-85.333333V576c0 23.466667 19.2 42.666667 42.666666 42.666667s42.666667-19.2 42.666667-42.666667v-426.666667z"  horiz-adv-x="1024" />

    
    <glyph glyph-name="activated" unicode="&#58910;" d="M512 810.666667c236.8 0 426.666667-192 426.666667-426.666667s-192-426.666667-426.666667-426.666667S85.333333 149.333333 85.333333 384 277.333333 810.666667 512 810.666667z m234.666667-262.4L452.266667 302.933333l-128 138.666667-40.533334-38.4 162.133334-181.333333L785.066667 512 746.666667 548.266667z"  horiz-adv-x="1024" />

    
    <glyph glyph-name="chehuisekuai" unicode="&#60485;" d="M64 548.448L320 768v-448zM265.472 0v112h377.824a200 200 0 1 1 0 400H240V624h403.296c172.32 0 312-139.68 312-312S815.616 0 643.296 0H265.472z"  horiz-adv-x="1024" />

    
    <glyph glyph-name="page_up" unicode="&#58895;" d="M738.133333 74.666667L428.8 384 738.133333 693.333333l-72.533333 70.4L285.866667 384l70.4-70.4 311.466666-309.333333z"  horiz-adv-x="1024" />

    
    <glyph glyph-name="page_next" unicode="&#58896;" d="M285.866667 693.333333L595.2 384 285.866667 74.666667l70.4-70.4L738.133333 384l-70.4 70.4L356.266667 763.733333z"  horiz-adv-x="1024" />

    
    <glyph glyph-name="shezhi" unicode="&#58920;" d="M435.456 891.2c49.28 6.4 99.072 6.4 148.288 0a90.688 90.688 0 0 0 75.328-61.248c12.48-35.84 38.208-65.6 71.936-83.008 34.688-18.56 74.816-24.256 113.28-16.192a95.04 95.04 0 0 0 92.8-30.912c30.784-36.48 56.192-77.12 75.52-120.768a83.84 83.84 0 0 0-18.496-94.464 137.6 137.6 0 0 1 0-196.16c25.408-24.448 32.768-62.208 18.496-94.4a500.992 500.992 0 0 0-74.88-120.768 95.168 95.168 0 0 0-92.928-30.912 167.744 167.744 0 0 1-113.792-16.192c-33.792-17.408-59.52-47.168-71.936-83.072a90.688 90.688 0 0 0-75.712-61.184c-49.216-6.4-99.008-6.4-148.224 0a90.688 90.688 0 0 0-75.648 61.184 147.776 147.776 0 0 1-70.656 83.072 167.744 167.744 0 0 1-113.92 16.192 95.04 95.04 0 0 0-92.8 30.912 500.992 500.992 0 0 0-74.88 120.768A83.84 83.84 0 0 0 25.6 288.448c26.176 25.984 40.96 61.312 41.088 98.176a139.392 139.392 0 0 1-41.088 97.984 83.84 83.84 0 0 0-18.432 94.464 500.992 500.992 0 0 0 74.496 120.768 94.912 94.912 0 0 0 92.864 30.912 167.744 167.744 0 0 1 113.92 16.192c33.344 17.6 58.752 47.36 71.04 83.008A90.688 90.688 0 0 0 435.392 891.2z m74.112-299.456a205.248 205.248 0 1 1-0.256-410.496 205.248 205.248 0 0 1 0.256 410.496z m0-82.688a122.56 122.56 0 1 0-113.28-75.712 122.56 122.56 0 0 0 113.28 75.712z"  horiz-adv-x="1024" />

    
    <glyph glyph-name="logo1" unicode="&#59029;" d="M351.080296 691.2s241.701926-284.709926 290.133334-332.875852c48.431407-48.165926 134.864593-150.641778 241.891555-170.363259 64.549926-11.908741 133.878519 20.859259 265.784889 122.349037 90.680889 69.783704 171.576889 78.127407 197.518222 78.127407 55.675259-2.427259 109.75763-18.962963 157.165037-48.090074 66.484148-40.12563 237.264593-197.404444 255.544889-210.488889 27.154963-19.342222 242.270815-192.549926 258.427259-198.542222 16.19437-5.992296-136.267852 22.376296-198.921481 53.248a983.798519 983.798519 0 0 0-173.89037 108.430222c-55.940741 41.832296-105.054815 74.827852-165.05363 119.011556-51.351704 38.07763-121.059556 62.388148-191.67763 35.726222-62.426074-23.589926-100.503704-59.771259-171.045926-105.889185-70.542222-46.155852-103.461926-84.195556-211.930074-84.195556-107.33037 0-185.344 45.89037-259.944296 110.098963-37.432889 32.199111-95.649185 88.064-147.721481 141.615408V-128H351.080296V691.2zM438.840889 896v-146.280296H292.560593V-128H146.280296V749.719704H0V896h438.840889z"  horiz-adv-x="2048" />

    
    <glyph glyph-name="filter" unicode="&#58912;" d="M936.533333 712.533333c0-17.066667-14.933333-32-32-32h-405.333333c-14.933333-44.8-55.466667-78.933333-106.666667-78.933333s-91.733333 32-106.666666 78.933333H119.466667c-17.066667 0-32 14.933333-32 32s14.933333 32 32 32h166.4C298.666667 789.333333 341.333333 823.466667 390.4 823.466667s91.733333-32 106.666667-78.933334h405.333333c19.2 0 34.133333-14.933333 34.133333-32z m0-659.2c0-17.066667-14.933333-32-32-32H665.6c-14.933333-44.8-55.466667-78.933333-106.666667-78.933333s-91.733333 32-106.666666 78.933333H119.466667c-17.066667 0-32 14.933333-32 32S100.266667 85.333333 117.333333 85.333333h332.8c14.933333 44.8 55.466667 78.933333 106.666667 78.933334s91.733333-32 106.666667-78.933334h238.933333c19.2 0 34.133333-14.933333 34.133333-32z m0 330.666667c0-17.066667-14.933333-32-32-32h-98.133333c-14.933333-44.8-55.466667-78.933333-106.666667-78.933333s-91.733333 32-106.666666 78.933333H117.333333c-17.066667 0-32 14.933333-32 32s14.933333 32 32 32h475.733334c14.933333 44.8 55.466667 78.933333 106.666666 78.933333s91.733333-32 106.666667-78.933333h98.133333c17.066667 0 32-14.933333 32-32z"  horiz-adv-x="1024" />

    
    <glyph glyph-name="searchsvg" unicode="&#58902;" d="M441.6 140.8C268.8 140.8 128 281.6 128 454.4S268.8 765.866667 441.6 765.866667s313.6-140.8 313.6-313.6-140.8-311.466667-313.6-311.466667z m0 70.4c134.4 0 243.2 108.8 243.2 243.2S576 697.6 441.6 697.6 198.4 588.8 198.4 454.4s108.8-243.2 243.2-243.2z m209.066667 85.333333L896 51.2l-49.066667-49.066667-245.333333 245.333334 49.066667 49.066666z"  horiz-adv-x="1024" />

    
    <glyph glyph-name="xia" unicode="&#58924;" d="M826.002286 478.573714L563.712 216.283429a73.142857 73.142857 0 0 0-103.424 0L197.997714 478.573714A73.142857 73.142857 0 0 0 249.709714 603.428571h524.580572a73.142857 73.142857 0 0 0 51.712-124.854857z"  horiz-adv-x="1024" />

    
    <glyph glyph-name="exitscreen" unicode="&#58914;" d="M640 469.333333h256c23.466667 0 42.666667 19.2 42.666667 42.666667s-19.2 42.666667-42.666667 42.666667h-153.6l183.466667 183.466666c17.066667 17.066667 14.933333 42.666667 0 59.733334-17.066667 17.066667-42.666667 17.066667-59.733334 0L682.666667 614.4V768c0 23.466667-19.2 42.666667-42.666667 42.666667s-42.666667-19.2-42.666667-42.666667v-256c0-23.466667 19.2-42.666667 42.666667-42.666667zM85.333333 512c0-23.466667 19.2-42.666667 42.666667-42.666667h256c23.466667 0 42.666667 19.2 42.666667 42.666667V768c0 23.466667-19.2 42.666667-42.666667 42.666667s-42.666667-19.2-42.666667-42.666667v-153.6L157.866667 797.866667c-17.066667 17.066667-42.666667 14.933333-59.733334 0s-17.066667-42.666667 0-59.733334l183.466667-183.466666H128c-23.466667 0-42.666667-19.2-42.666667-42.666667z m512-512c0-23.466667 19.2-42.666667 42.666667-42.666667s42.666667 19.2 42.666667 42.666667v153.6l183.466666-183.466667c17.066667-17.066667 42.666667-14.933333 59.733334 0 17.066667 17.066667 17.066667 42.666667 0 59.733334L744.533333 213.333333h153.6c23.466667 0 42.666667 19.2 42.666667 42.666667s-19.2 42.666667-42.666667 42.666667H640c-23.466667 0-42.666667-19.2-42.666667-42.666667v-256zM128 213.333333h153.6l-183.466667-183.466666c-17.066667-17.066667-14.933333-42.666667 0-59.733334 17.066667-17.066667 42.666667-17.066667 59.733334 0l183.466666 183.466667V0c0-23.466667 19.2-42.666667 42.666667-42.666667s42.666667 19.2 42.666667 42.666667V256c0 23.466667-19.2 42.666667-42.666667 42.666667H128c-23.466667 0-42.666667-19.2-42.666667-42.666667s19.2-42.666667 42.666667-42.666667z"  horiz-adv-x="1024" />

    
    <glyph glyph-name="jiantou_left" unicode="&#59028;" d="M408.613 599.625l-66.67-179.42h620.836l-0.036-72.41H341.906l66.707-170.68L4.059 384z"  horiz-adv-x="1024" />

    
    <glyph glyph-name="jiantou_right" unicode="&#59027;" d="M615.387 599.625l66.707-179.42H61.257l0.037-72.41h620.8l-66.707-170.68L1019.941 384z"  horiz-adv-x="1024" />

    
    <glyph glyph-name="logo2" unicode="&#59026;" d="M118.124475 23.152814c16.557559 0 29.574508-8.192 37.384678-16.93939l-9.30278-11.159865c-7.063864 7.63661-16.175729 13.016949-27.908339 13.016949-25.860339 0-42.973288-21.208949-42.973288-55.243932 0-34.434169 16.366644-56.007593 42.417898-56.007593 13.016949 0 22.892475 5.762169 31.639864 15.255864l9.476339-10.795389c-10.79539-12.461559-24.176814-19.525424-41.862508-19.525424-33.844068 0-59.357288 26.224814-59.357288 70.499797 0 44.084068 25.860339 70.898983 60.485424 70.898983z m2928.778847 0c16.175729 0 30.511729-6.890305 40.178983-16.93939l-9.111864-10.968949c-8.382915 7.810169-18.414644 12.84339-31.067119 12.843389-15.44678 0-25.495864-7.827525-25.495864-20.098169 0-13.22522 11.906169-18.241085 22.510644-22.701559l19.542779-8.382916c15.793898-6.872949 28.081898-16.175729 28.081899-36.447457 0-21.59078-17.859254-38.703729-46.322983-38.703729a65.171525 65.171525 0 0 0-47.815594 20.271729l10.24 11.715254c9.858169-10.24 23.621424-16.922034 37.766509-16.922034 17.859254 0 28.637288 8.920949 28.637288 22.319729 0 13.954169-9.840814 18.432-22.684203 24.194169l-19.716339 8.556475c-12.669831 5.380339-27.73478 15.064949-27.73478 34.972203 0 21.03539 18.223729 36.273898 42.990644 36.273899z m-1271.460881-2.60339l46.322983-136.382916h-18.223729l-13.016949 41.671594h-49.880949l-13.190509-41.671594h-17.49478l46.322984 136.36556h19.160949z m-612.837966 0l46.322983-136.382916h-18.223729l-13.034305 41.671594H1127.788475l-13.207865-41.671594h-17.494779l46.340338 136.36556h19.143594z m-933.228475 0v-57.118373h63.626847v57.101017h17.11295v-136.36556h-17.11295V-51.460339h-63.626847v-64.373153h-17.303864v136.36556h17.303864z m2656.394847 0c41.862508 0 64.390508-24.385085 64.390509-67.722848 0-43.164203-22.528-68.660068-63.644203-68.660068h-34.972204v136.36556z m-137.476339 0c27.717424 0 47.624678-9.875525 47.624678-38.339255 0-21.208949-12.288-33.844068-30.893559-38.321898l34.989559-59.721763h-19.542779l-33.115119 57.864678h-24.558644V-115.850847h-17.303864v136.365559z m-836.660067 0c27.717424 0 47.624678-9.875525 47.624678-38.339255 0-21.208949-12.288-33.844068-30.89356-38.321898l34.98956-59.721763h-19.54278l-33.115119 57.864678h-24.558644V-115.850847h-17.303864v136.365559z m120.554305 0v-68.469153h0.55539l56.927457 68.451797h19.351865l-42.608814-51.894237 49.308203-84.471323h-19.351864l-40.734373 71.072543-23.447864-27.908339V-115.850847h-17.303865v136.365559h17.303865z m-1639.458712 0V-115.850847h-17.303865v136.365559h17.303865z m1887.284068 0l46.322983-136.382916h-18.223729l-13.034305 41.671594h-49.863593l-13.207865-41.671594h-17.494779l46.340339 136.36556h19.143593z m-710.152678 0l26.224813-72.946983c3.15878-9.476339 6.334915-18.970034 9.68461-28.463729h0.919865l9.30278 28.463729 26.033898 72.929627h20.844474v-136.36556h-16.175728v75.533017c0 11.715254 1.301695 28.290169 2.238915 40.196339h-0.746305l-10.79539-31.067118-25.860339-70.898983h-11.541695l-25.860339 70.881627-10.79539 31.067118h-0.728949c0.728949-11.888814 2.048-28.463729 2.048-40.178983v-75.533017h-15.620339v136.36556h20.827119z m-902.334916 0L713.849492-115.850847h-18.223729l-13.034305 41.671593h-49.863594l-13.207864-41.671593h-17.49478l46.340339 136.365559h19.160949z m-191.817762 0l49.672678-85.963932 14.509559-28.099255h0.93722c-0.93722 13.78061-2.256271 29.036475-2.256271 43.164204v70.881627h16.384v-136.36556h-17.668339l-49.672678 86.137492-14.700474 28.099254h-0.746305c0.746305-13.763254 2.048-28.290169 2.048-42.608813v-71.627933h-16.366644v136.36556h17.859254z m1014.69722 0v-14.526916h-61.387932v-42.782372h51.720678v-14.700475h-51.720678v-49.672678h63.435932v-14.700475H1411.731525v136.36556h78.691797z m886.888136 0l14.336-74.248678c2.60339-14.700475 5.397695-29.383593 8.001084-44.084068h0.746306c3.15878 14.700475 6.508475 29.383593 9.858169 44.084068l18.796475 74.231322h15.620339l19.160949-74.231322c3.349695-14.509559 6.525831-29.210034 9.68461-44.084068h0.919864c2.60339 14.874034 5.20678 29.574508 7.81017 44.084068l14.336 74.231322h16.557559l-28.290169-136.36556h-20.65356l-20.653559 82.232407c-2.395119 10.79539-4.443119 20.653559-6.682034 31.067119h-0.746305c-2.221559-10.413559-4.65139-20.271729-6.872949-31.067119l-20.289085-82.232407h-20.48l-29.001763 136.36556h17.859255z m-1087.071458 0c41.862508 0 64.390508-24.385085 64.390509-67.722848 0-43.164203-22.528-68.660068-63.644204-68.660068h-34.972203v136.36556z m-372.64922 0v-14.526916h-41.307119v-121.856h-17.303864v121.856h-41.307119v14.50956h99.918102z m1694.529084 0l46.340339-136.382916h-18.241084l-13.016949 41.671594h-49.88095l-13.190508-41.671594h-17.49478l46.322983 136.36556h19.160949z m-1599.470644 0c27.73478 0 47.642034-9.875525 47.642034-38.339255 0-21.208949-12.288-33.844068-30.893559-38.321898l34.989559-59.721763H1044.827119l-33.115119 57.864678h-24.558644V-115.850847h-17.303864v136.365559z m276.09817-13.971526h-15.44678v-108.266305h15.44678c32.195254 0 48.006508 20.080814 48.006508 54.497627 0 34.607729-15.811254 53.768678-48.006508 53.768678z m1595.565559 0h-15.446779v-108.266305h15.446779c32.177898 0 47.989153 20.080814 47.989153 54.497627 0 34.607729-15.793898 53.768678-47.989153 53.768678z m-1118.346847 0h-0.746305a1112.758237 1112.758237 0 0 0-13.572339-46.132067l-6.69939-20.827119h41.307119l-6.525831 20.827119c-5.015864 15.44678-9.30278 30.320814-13.763254 46.132067z m504.571661 0h-0.746305a1112.723525 1112.723525 0 0 0-13.589695-46.132067l-6.69939-20.827119h41.307119l-6.508475 20.827119c-5.03322 15.44678-9.30278 30.320814-13.763254 46.132067z m-1117.409627 0h-0.746305a1112.758237 1112.758237 0 0 0-13.589695-46.132067l-6.69939-20.827119h41.307118l-6.508474 20.827119c-5.03322 15.44678-9.30278 30.320814-13.763254 46.132067z m1449.498034 0h-0.746306a1112.775593 1112.775593 0 0 0-13.572339-46.132067l-6.699389-20.827119h41.307118l-6.52583 20.827119c-5.015864 15.44678-9.30278 30.320814-13.763254 46.132067z m-1944.576 0h-0.746306a1112.758237 1112.758237 0 0 0-13.589694-46.132067l-6.682034-20.827119h41.307118l-6.52583 20.827119c-5.03322 15.44678-9.30278 30.320814-13.763254 46.132067z m2087.658305 0h-22.892475v-50.592542h22.892475c21.382508 0 33.115119 8.556475 33.115118 26.224813 0 18.050169-11.73261 24.367729-33.115118 24.367729z m-836.660068 0h-22.892475v-50.592542h22.892475c21.382508 0 33.115119 8.556475 33.115118 26.224813 0 18.050169-11.73261 24.367729-33.115118 24.367729z m-899.002576 0h-22.875119v-50.592542h22.875119c21.399864 0 33.115119 8.556475 33.115118 26.224813 0 18.050169-11.715254 24.367729-33.115118 24.367729z m70.690711 341.773017a233.55878 233.55878 0 0 1-32.056406-120.137762 230.139661 230.139661 0 0 1 28.429017-111.841628l3.627389-6.369627h-24.905762a221.826169 221.826169 0 0 0-33.340746 119.217899 232.048814 232.048814 0 0 0 29.626576 112.744135l3.71417 6.386983h24.905762z m533.746983 0.937221a246.523661 246.523661 0 0 0 33.340746-120.068339c0.052068-44.604746-9.927593-82.614237-29.921627-114.028475l-3.419119-5.20678h-25.756203a217.313627 217.313627 0 0 1 33.41017 119.235255 262.178712 262.178712 0 0 1-28.724068 113.10861l-3.696814 6.959729h24.766915z m1405.952-168.734373c0.642169-1.284339-0.919864-5.085288-4.720813-11.663187 37.037559-11.35078 63.991322-19.907254 80.826576-25.652068l3.037288-1.041355-5.727457-7.584543-13.364068-16.019525c-12.027661 5.154712-31.778712 12.739254-59.114305 22.892474-8.226712 3.228203-14.596339 5.727458-19.039458 7.653966-13.364068-15.880678-40.352542-25.738847-81.000135-29.557152a428.292339 428.292339 0 0 1-16.245153 24.766915c29.904271 1.926508 48.943729 4.790237 57.239864 8.591187a37.072271 37.072271 0 0 1 21.903187 23.829694 2.724881 2.724881 0 0 0 0.93722 1.909153c0 2.51661 0.989288 3.818305 2.846373 3.818305a125.084203 125.084203 0 0 0 32.420881-1.943864zM666.051254 344.497898c1.301695-4.408407 2.169492-8.938305 2.60339-13.520271l0.260339-4.581966h84.870509v-23.829695h-58.194441c8.244068-3.15878 12.392136-6.022508 12.392135-6.664678 0-0.642169-0.642169-1.562034-1.943864-2.863729a71.558508 71.558508 0 0 1-9.458983-12.66983l-1.909153-3.488543h42.938577v-135.393627c1.284339-15.221153-13.954169-22.510644-45.732882-21.903186a60.173017 60.173017 0 0 1-8.591186 29.557152c16.644339-0.607458 24.419797 1.562034 23.187525 6.560543l-0.347118 1.041356v62.880542c-3.54061-3.835661-6.716746-7.983729-9.528407-12.37478a37.41939 37.41939 0 0 1-6.213424 5.987797l-2.377763 1.66617v-58.819255H658.484068v4.581966h-28.637288v-8.591186h-25.756204V213.044068l-5.727457-3.800949a42.938576 42.938576 0 0 1-7.827526 12.58305l-2.60339 2.672814v-100.178441h-30.563796v153.426441h45.802305a194.733559 194.733559 0 0 0-4.807593 7.63661c-2.863729 5.015864-3.505898 7.584542-2.863729 7.584543a718.014915 718.014915 0 0 1 30.546441 7.653966c3.384407-5.727458 6.091932-11.802034 8.139932-18.119594l1.388474-4.772881h26.693424c3.731525 6.282847 6.942373 12.878102 9.580475 19.681627l1.87444 5.154712h-133.102644V326.378305h90.164068a70.551864 70.551864 0 0 1-1.614102 8.973017l-1.249627 4.408407-0.919864 2.863729c6.942373 1.093424 13.936814 1.700881 20.965966 1.857084a71.992407 71.992407 0 0 0 18.102237 0zM397.277288 217.764881c15.238508 0 22.823051-0.642169 22.823051-1.926508a4.720814 4.720814 0 0 0-0.919864-4.790237 26.901695 26.901695 0 0 1-0.815729-4.425763l-0.121492-2.238915v-6.647322h89.591322v-27.335594h-88.862373v-50.818169h-35.076339v50.818169h-88.654101v27.335594h88.654101v20.028745h13.381424z m2154.148881 126.733017c15.898034 0 24.194169-1.284339 24.836339-3.800949a17.87661 17.87661 0 0 0-1.006644-5.727457 30.477017 30.477017 0 0 1-1.805017-8.521763l-0.052067-2.915797v-54.324068h53.386847v-27.977762h-53.386847v-121.647729h-32.403526v121.005559h-52.466983v27.700068h52.466983v76.192542h10.430915z m210.666306 0.989288c11.767322 0 17.529492-0.538034 17.355932-1.631457l-0.17356-0.295051v-4.790237a54.74061 54.74061 0 0 1-1.857084-11.385492l-0.069424-3.853017v-40.005424h84.870508v-28.637288h-83.88122c5.727458-49.499119 36.864-81.989424 93.374915-97.453559a91.517831 91.517831 0 0 1-24.749559-36.204475c-42.591458 18.362576-71.506441 46.340339-86.727593 83.933289-13.364068-34.34739-43.233627-62.637559-89.660746-84.870509a94.103864 94.103864 0 0 1-24.680136 29.78278c55.955525 20.861831 86.328407 54.254644 91.118645 100.195796l0.399186 4.634034h-84.939932V283.509153h87.734237v61.960678h21.885831z m-2584.072678-1.909152a15.44678 15.44678 0 0 0-0.989289-3.818305c-1.666169-4.634034-2.60339-9.493695-2.794305-14.405424v-27.509152h82.857221v-108.700204h-35.197831v14.301288h-47.65939v-83.134915h-34.364745v83.134915H93.184v-17.165017H60.745763v111.563933h78.20583v46.652745c30.494373 0.052068 43.511322-0.260339 39.068204-0.93722z m1696.698576-3.818305c6.161356 0 9.632542-0.277695 10.309424-0.781017l0.138847-0.208271v-4.720814a42.001356 42.001356 0 0 1-1.805017-9.997017l-0.052068-3.384407v-178.887593c5.050576-14.80461-11.159864-21.625492-48.666034-20.48a86.866441 86.866441 0 0 1-9.51105 31.483661c21.746983-1.214915 31.101831 1.891797 28.186033 9.250712l-0.572745 1.214915V339.742373h21.97261z m-559.57261-0.989288v-215.387119h-31.414238v10.448271h-137.250711v-12.374779h-30.546441v217.296271h199.21139z m1026.620745-1.857085V300.691525c-1.197559-8.903593 1.995932-13.121085 9.615187-12.652474l1.839729 0.190915h27.613288c-3.124068-8.330847-4.772881-17.147661-4.859661-26.033898l0.069424-4.443119h-39.050848c-18.622915-1.214915-27.300881 3.818305-26.033898 15.099661l0.329763 2.082712v37.141695h-24.818984v-10.535051c1.822373-23.447864-7.08122-39.84922-26.276881-49.047864l-3.297627-1.475255h98.408136c-3.766237-27.248814-13.537627-53.282712-28.637289-76.279322 18.744407-8.608542 38.669017-14.405424 59.114306-17.182372-8.677966-10.170576-14.874034-22.215593-18.102238-35.197831a244.944271 244.944271 0 0 0-66.768271 28.637288 295.953356 295.953356 0 0 0-62.116881-29.557152 90.02522 90.02522 0 0 1-17.182373 31.483661 133.953085 133.953085 0 0 1 54.393491 20.028745 152.350373 152.350373 0 0 0-20.514712 46.184136l-1.440542 6.196068h-6.664678v20.046101c0 0.520678-1.145492 0.121492-3.471186-1.214915l-1.249627-0.728949-1.926509-0.919864A74.127186 74.127186 0 0 1 2221.559322 268.288c23.517288 5.67539 34.972203 18.362576 34.34739 38.061559v30.546441h85.859796z m-329.797423-161.080407a29.557153 29.557153 0 0 0-0.937221-5.727457 27.248814 27.248814 0 0 1-0.798372-3.783594l-0.208272-1.943864v-6.716746c0.381831-4.373695 3.714169-7.810169 7.914305-8.417627l1.614102-0.104136h28.619932c10.15322-1.96122 16.193085 4.686102 18.102238 19.959322a130.655458 130.655458 0 0 1 28.637288-10.430915c-0.607458-26.328949-14.752542-38.512814-42.417899-36.516881l-3.384406 0.295051h-43.806373c-16.800542-0.624814-25.391729 6.421695-25.77356 21.156881l0.017356 2.672814v34.277966h18.102238c11.454915 0.642169 16.175729-0.919864 14.318644-4.720814zM1563.873627 275.872542v-26.762847h-48.50983v-105.697627c3.714169-11.454915-10.986305-18.119593-44.084068-20.028746a80.219119 80.219119 0 0 1-12.37478 32.420881c17.303864-0.607458 25.68678 2.013288 24.992543 8.296136l-0.242984 1.214915v83.794441h-48.59661V275.872542h128.815729z m-717.650441 67.688136c0.572746-0.642169 0.572746-2.568678 0-5.727458a91.240136 91.240136 0 0 1-1.787661-13.537627l-0.138847-4.56461v-20.965966h29.557153v-21.885831h124.719728v-25.773559h-52.015728v-29.539796a2.724881 2.724881 0 0 1 1.909152 0.919864 158.494373 158.494373 0 0 0 23.552 12.322712c13.016949-21.521356 24.159458-44.084068 33.358102-67.497221-5.085288-3.349695-10.517695-6.074576-18.119593-10.517694-7.584542-4.425763-11.454915-6.369627-11.454916-5.727458a334.813288 334.813288 0 0 1-25.079322 57.916746l-4.460474 7.844881v-71.541153c-0.642169-14.613695-16.522847-21.538712-47.867661-20.965966a118.419525 118.419525 0 0 1-7.150644 29.40095c16.696407-1.214915 24.471864 1.562034 23.170169 8.226711l-0.347119 1.284339v55.313356c-2.51661-5.727458-6.664678-13.954169-12.392135-24.749559-9.545763-19.091525-16.835254-33.063051-21.885831-41.931932a107.971254 107.971254 0 0 1-25.756203 12.374779 420.534237 420.534237 0 0 1 24.818983 50.505763c-4.512542-2.568678-9.875525-5.415051-16.245153-8.57383-2.030644-1.562034-4.304271-2.776949-6.716745-3.644746a93.461695 93.461695 0 0 1-8.625899 19.334508l-2.829017 4.495187v-98.182509h-28.637288v83.863865a132.738169 132.738169 0 0 0-16.141017-31.483661 69.632 69.632 0 0 1-22.90983 18.102237 192.269017 192.269017 0 0 1 29.956339 67.688136l1.388474 6.664678h-25.773559v25.756203h33.358102v46.722169c21.608136 0 31.761356-0.642169 30.54644-1.909152z m1098.977628-162.000271c9.979661-2.186847 19.612203-5.727458 28.637288-10.517695a654.839322 654.839322 0 0 0-24.766916-44.795661c-5.085288 2.360407-12.097085 5.727458-20.965966 9.511051a143.82861 143.82861 0 0 1-7.653966 2.863729 316.711051 316.711051 0 0 1 24.74956 42.938576zM1443.874712 332.105763a354.286644 354.286644 0 0 0-23.829695-73.415594c10.691254-11.298712 16.488136-26.381017 16.175729-41.931932 0.659525-22.840407-13.016949-36.482169-41.012068-40.925288a63.036746 63.036746 0 0 1-6.491119 20.132882l-2.082712 3.696813v-71.489085h-27.630644V332.105763h84.870509z m661.469288-144.887322c13.22522-12.340068 25.061966-26.085966 35.28461-41.012068-3.15878-1.926508-10.170576-7.011797-20.965966-15.238509a10.934237 10.934237 0 0 1-2.863729-1.926508 495.320949 495.320949 0 0 1-32.420881 42.92122 186.402712 186.402712 0 0 1 20.965966 15.255865zM1726.047458 343.560678c9.163932-1.614102 18.258441-3.644746 27.248813-6.039864l8.955661-2.551322-1.006644-2.863729c-1.214915-1.752949-2.13478-3.679458-2.776949-5.727458a285.296814 285.296814 0 0 1 45.715525-30.477017 88.949153 88.949153 0 0 1-11.802033-21.937898l-1.57939-4.755526v-54.306711c0.503322-11.454915-1.562034-18.102237-6.664678-20.028746-3.297627-2.586034-16.158373-3.800949-39.050848-3.800949a75.203254 75.203254 0 0 1-3.818305 26.693423c14.301288-0.607458 20.792407 1.995932 19.438644 8.226712l-0.399186 1.284339v17.182373h-29.539797v-74.352813c-1.735593-9.476339 2.256271-13.728542 12.097085-12.739255l2.204203 0.295051h8.591187c10.118508-2.533966 15.498847 4.477831 16.175729 21.03539a89.521898 89.521898 0 0 1 28.619932-8.591186c-2.360407-19.751051-5.727458-30.841492-9.511051-33.41017-2.950508-4.599322-10.899525-6.907661-23.222237-6.768814l-3.471187 0.104136h-22.90983c-27.422373-1.822373-40.231051 8.938305-38.426034 32.282034l0.295051 3.002576v78.136407l-9.511051-9.511051a99.102373 99.102373 0 0 1-20.965966 19.091526 231.632271 231.632271 0 0 1 49.950373 78.049627l2.499254 6.768813 2.863729 5.727458z m748.474576-72.408949v-83.933288a160.004339 160.004339 0 0 1 26.693424 22.892474c2.60339-9.979661 6.439051-19.612203 11.454915-28.637288a662.875119 662.875119 0 0 1-43.875797-39.120271 90.66739 90.66739 0 0 0-11.368135-11.385492c-1.284339-1.284339-2.290983-1.284339-2.863729 0a267.402847 267.402847 0 0 0-16.245153 29.557153c3.176136 7.549831 5.03322 15.568271 5.571255 23.708203l0.156203 4.911729v54.324068h-37.141695v27.682712h67.618712z m-254.733017 1.857085v-75.428882c0.347119 0.416542 0.798373 0.93722 1.371119 1.562034l2.013288 2.256271c1.162847 1.284339 2.568678 2.881085 4.200135 4.772882 3.991864 5.501831 8.487051 10.656542 13.364068 15.394712 3.974508-9.927593 8.74739-19.508068 14.318644-28.637289a1041.217085 1041.217085 0 0 1-52.449627-59.096949 309.560407 309.560407 0 0 0-20.965966 33.41017c5.258847 8.139932 8.070508 20.827119 8.469695 38.061559l0.052068 4.807593v37.211119h-27.630644v25.68678h57.25722z m-768.312407-40.925289c17.789831-6.404339 27.023186-9.892881 27.682712-10.517694a711.350237 711.350237 0 0 0-35.267254-75.290034 292.100339 292.100339 0 0 1-28.637288 13.312c14.613695 15.880678 26.676068 40.057492 36.22183 72.495728z m98.095729 3.783594c7.740746-18.397288 14.578983-37.141695 20.497356-56.198509l4.269559-14.353356-31.483661-12.374779a334.969492 334.969492 0 0 1-18.310508 62.012745l-3.592678 8.539119 28.637288 12.37478z m555.789017 23.829695v-71.558509h-58.107661c0.572746-1.284339 1.57939-3.505898 2.863729-6.647322 2.586034-5.258847 4.807593-10.691254 6.664678-16.245152a117.360814 117.360814 0 0 0-11.454916-4.720814c-4.929085-1.909153-9.719322-4.148068-14.318644-6.734102-7.150644 13.954169-11.73261 23.187525-14.301288 27.700068 4.043932 0.93722 7.914305 2.533966 11.454915 4.720814l2.429831 0.867796 2.360407 1.058712h-81.000136v71.558509h153.426441z m910.388068 85.998644l5.97044-0.208272c1.301695-4.703458 1.978576-9.545763 2.030644-14.440135l-0.086779-3.644746h83.79444v-42.938576h-30.494372v-9.528407h-29.557153v-7.63661h39.085559v-19.056814h-39.085559v-8.57383h61.040814v-20.965966h-43.858441c10.830102-8.261424 27.977763-14.301288 51.442983-18.102238-7.168-8.608542-13.537627-17.87661-19.022102-27.630644a68.035254 68.035254 0 0 1-9.528406 4.720814 85.877153 85.877153 0 0 1-12.010306 6.768813l-4.234847 1.822373v-21.903186H3040.759322v24.766915h-74.352814v-30.477017h-28.619932v26.676068c-8.66061-5.953085-17.668339-11.368136-26.971118-16.245153a266.934237 266.934237 0 0 1-13.312 19.108882 24.471864 24.471864 0 0 0-4.790238 6.664678c15.967458 4.720814 31.240678 11.454915 45.472543 20.028746l6.039864 3.800949h-43.858441v20.965966h60.97139v8.57383h-39.085559v19.039458h39.085559v7.653966h-29.557152v9.528407h-30.494373v42.92122h87.092068a145.650983 145.650983 0 0 1-2.863729 7.584543 45.802305 45.802305 0 0 0-2.863729 7.671322 64.390508 64.390508 0 0 0 15.238508 1.857084c3.957153 0.55539 7.914305 0.919864 11.888814 1.093424l5.970441 0.104136z m-1732.000543-32.976272h-137.250712v-153.131389h137.250712v153.131389z m553.914577 1.284339a8.018441 8.018441 0 0 0-0.919865-3.783593 59.183729 59.183729 0 0 1-0.867796-7.619254l-0.069424-3.818305v-128.381831h-29.557153v145.546848h21.903187c6.369627 0.572746 9.511051 0 9.511051-1.943865z m-562.505763-15.238508v-23.829695h-46.72217v-20.965966h42.921221v-23.829695h-11.454915c4.929085-7.688678 8.886237-14.145085 11.888813-19.36922l1.440542-2.51661-14.318644-9.597831h18.171661v-24.749559h-123.921356V198.638644h44.778306v31.483661h-39.050848v23.829695h39.120271v20.965966h-42.92122V298.782373h120.068339z m-616.743051-97.245288h-28.637288v-19.959322h28.637288v19.959322z m1656.832 24.818983h-30.494373c3.297627-11.715254 8.782102-22.736271 16.175729-32.403526a92.229424 92.229424 0 0 1 14.318644 32.420882z m-1067.702237 3.818305h-19.108882v-31.501017h19.091526a152.211525 152.211525 0 0 1-10.378848 16.713763l-3.92244 5.258847 14.318644 9.511051z m162.000271 76.192542h-22.909831v-101.966101a23.829695 23.829695 0 0 1 19.108882 10.517695c5.224136 10.812746-0.347119 25.68678-16.245153 44.795661 8.608542 14.648407 15.342644 30.338169 20.046102 46.652745z m664.402441-90.511186h-92.455051v-8.591187h92.455051v8.591187z m953.153084 2.863729h-41.931932a27.335593 27.335593 0 0 0-3.800949-2.863729c-1.805017-1.614102-3.679458-3.124068-5.623322-4.56461l-2.950508-2.082712h63.887186l-9.580475 9.511051z m-2680.259254 127.739661c9.406915-3.401763 16.922034-6.317559 22.562712-8.625899l4.373695-1.822372c5.20678-2.204203 7.983729-3.575322 8.27878-3.887729 0.642169-0.642169-2.221559-4.720814-8.504407-12.37478a171.736949 171.736949 0 0 1-8.521763-10.62183l-3.939797-5.553899v-88.654101h-28.637288v54.324067c-6.386983-8.434983-13.364068-16.401356-20.879186-23.829695a357.775186 357.775186 0 0 1-24.836339 20.965967 274.917966 274.917966 0 0 1 60.103593 80.062915z m522.24-73.432949h-24.766915v-26.832272l16.175729 8.591187c4.668746-7.63661 9.198644-15.238508 13.554983-22.857763l6.473762-11.420203 3.80095 12.513627c8.209356-2.082712 16.210441-4.963797 23.864406-8.591187l5.67539-2.846372v29.539796h-44.778305v21.903187z m-461.980203 72.478372c17.182373 0 25.68678-1.284339 25.686779-3.853017a14.752542 14.752542 0 0 0-0.93722-4.720813c-0.416542-2.082712-0.694237-4.200136-0.833085-6.334915l-0.086779-3.193492v-22.042034a190.776407 190.776407 0 0 1 35.267254 26.693424c1.874441 1.943864 3.15878 2.863729 3.800949 2.863729 17.737763-17.182373 26.693424-26.033898 26.693424-26.693424-8.313492-3.783593-20.965966-10.79539-38.148339-20.965966-10.760678-6.23078-19.230373-10.934237-25.409085-14.110373l-2.204203-1.128136v-11.454915c0.572746-6.820881 3.176136-10.621831 7.879593-11.316068l1.631458-0.121491h14.960813c14.578983-1.787661 20.827119 7.150644 18.102237 27.682712 10.15322-3.228203 20.965966-6.091932 32.420882-8.573831-0.433898-20.965966-3.731525-33.063051-7.584543-38.148339-3.575322-4.686102-12.496271-7.237424-26.866983-7.601898l-3.696813-0.052068h-44.778305c-15.707119-0.607458-23.534644 5.901017-23.864407 19.369221l0.017356 2.603389v14.301288c-6.647322-2.499254-13.312-5.362983-20.965966-8.504406a209.659661 209.659661 0 0 1-14.301288 25.686779c0 0.642169 1.909153 1.284339 5.727457 1.926509a116.059119 116.059119 0 0 1 23.118102 7.758102l5.50183 2.690169v57.239864h8.851526z m260.894373-91.51783h-41.931933l16.175729-16.245153-1.943864-0.919864c-4.425763-2.898441-8.730034-5.987797-12.895458-9.268068l-6.126644-5.03322h57.170441c-8.157288 5.449763-14.943458 9.754034-20.323797 12.84339l-2.568678 1.457898-1.87444 0.919864 2.863728 2.863729c3.800949 4.443119 7.584542 8.955661 11.454916 13.381424z m-47.65939 0h-32.420882v-25.756203c12.149153 6.734102 23.118102 15.44678 32.420882 25.756203z m-398.42278 17.182373h-47.65939v-41.931932h47.65939v41.931932z m-82.00678 0H93.166644v-41.931932H139.888814v41.931932z m566.150509-17.182373h-34.277966c9.667254-4.981153 18.935322-10.673898 27.769491-17.008814l6.508475-4.877017v21.885831z m1367.890441-13.364068h-92.455051v-7.601898h92.455051v7.584542z m944.631322 7.63661h-27.700068v-8.57383h27.700068v8.57383zM2037.586441 345.695458l5.727457-0.208272c1.041356-3.384407 1.405831-6.959729 1.058712-10.517694 0.399186-1.874441 0.676881-3.783593 0.815729-5.692746l0.121492-2.881085h77.216542v-22.840407h-45.732881c5.727458-1.284339 8.868881-2.568678 9.51105-3.853017a8.868881 8.868881 0 0 0-1.909152-4.720813 19.612203 19.612203 0 0 1-4.599322-4.807593l-1.145492-1.909153h59.114305v-21.903186H1918.351186v21.88583h62.967322a14.318644 14.318644 0 0 1-3.870372 5.727458 15.741831 15.741831 0 0 0-1.857085 4.790237c2.533966 1.284339 4.929085 2.429831 7.185356 3.419119l3.262915 1.388474h-52.241356V326.378305h76.140475a295.866576 295.866576 0 0 1-3.783594 12.37478c-1.284339 1.926508-1.562034 3.210847-0.93722 3.870373 4.981153 1.214915 10.101153 1.857085 15.238509 1.857084 3.783593 0.55539 7.584542 0.919864 11.385491 1.093424l5.727458 0.104136z m980.957288-70.760136h-27.682712v-7.63661h27.700068v7.63661z m-1274.41139 28.637288a24.037966 24.037966 0 0 1-2.863729-3.870373c-4.616678-7.393627-9.511051-14.613695-14.700474-21.608135l-5.276204-6.942373h61.90861c-9.493695 6.907661-22.528 17.703051-39.068203 32.403525z m472.775593 39.050848c5.189424-13.121085 9.372203-26.624 12.530983-40.369899l1.770305-8.278779-31.483661-8.504407a285.435661 285.435661 0 0 1-12.253288 38.35661l-3.905085 9.285424 33.32339 9.528407z m240.501153 1.006644c10.066441-11.055729 18.813831-23.256949 26.051254-36.325966l3.505898-6.595255-27.700068-14.231864a308.762034 308.762034 0 0 1-21.573423 33.14983l-6.039865 7.844882 25.756204 16.158373z m-406.944543-40.074848h-40.439322c0.485966-1.440542 1.128136-3.245559 1.961221-5.380339l0.902508-2.256271 2.863729-7.671322h28.637288c2.499254 6.369627 4.425763 11.454915 6.074576 15.307932z m1025.266983 0.937221h-28.619932v-10.517695h28.637288v10.517695z m-114.410305 0h-29.557152v-10.517695h29.557152v10.517695z m57.239865 0h-27.700068v-10.517695h27.700068v10.517695z m-1467.999458 25.756203v-25.756203h-99.102373v25.756203h99.102373z m-567.087729 1.857085v-26.676068h-100.109017V332.105763h100.109017zM160.663864 802.277966s110.609356-130.290983 132.772882-152.333017c22.163525-22.042034 61.717695-68.937763 110.696135-77.962847 29.539797-5.449763 61.266441 9.545763 121.630373 55.990237 41.498034 31.934915 78.518237 35.75322 90.389695 35.75322 25.478508-1.11078 50.228068-8.677966 71.922983-22.007322 30.424949-18.362576 108.578712-90.337627 116.944271-96.325423 12.426847-8.851525 110.869695-88.116068 118.263322-90.858306 7.410983-2.742237-62.359864 10.24-91.031864 24.367729a450.212881 450.212881 0 0 0-79.576949 49.62061c-25.6 19.143593-48.075932 34.243254-75.533017 54.462916-23.499932 17.425356-55.400136 28.550508-87.716881 16.349288-28.567864-10.79539-45.99322-27.352949-78.275255-48.457763-32.282034-21.122169-47.346983-38.530169-96.984949-38.530169-49.117288 0-84.818441 21.000678-118.957559 50.384271-17.130305 14.735186-43.771661 40.300475-67.601356 64.807051V427.389831H160.663864V802.277966zM200.825492 896v-66.941831H133.883661V427.389831H66.941831V829.058169H0V896h200.825492z"  horiz-adv-x="3124" />

    
    <glyph glyph-name="add" unicode="&#59003;" d="M990.776889 320.739556h-415.516445v-415.516445c0-17.635556-14.279111-31.971556-31.914666-31.971555H479.402667a31.971556 31.971556 0 0 0-31.971556 31.971555v415.516445H31.971556A31.971556 31.971556 0 0 0 0 352.654222V416.597333c0 17.635556 14.336 31.971556 31.971556 31.971556h415.459555V864.028444c0 17.635556 14.336 31.971556 31.971556 31.971556h63.943111c17.635556 0 31.914667-14.336 31.914666-31.971556v-415.459555h415.516445c17.635556 0 31.971556-14.336 31.971555-31.971556v-63.943111c0-17.635556-14.336-31.914667-31.971555-31.914666z"  horiz-adv-x="1024" />

    
    <glyph glyph-name="delete" unicode="&#59004;" d="M864.581818 644.421818V51.665455a156.346182 156.346182 0 0 0-156.346182-156.346182H291.374545A156.346182 156.346182 0 0 0 134.981818 51.665455V644.375273h729.6zM320.232727 351.650909a39.098182 39.098182 0 0 1-39.098182-39.098182v-220.951272a39.098182 39.098182 0 1 1 78.196364 0v220.951272a39.098182 39.098182 0 0 1-39.098182 39.098182z m357.003637 0a39.098182 39.098182 0 0 1-39.098182-39.098182v-220.951272a39.098182 39.098182 0 1 1 78.196363 0v220.951272a39.098182 39.098182 0 0 1-39.098181 39.098182zM498.688 487.191273a39.098182 39.098182 0 0 1-39.098182-39.098182v-354.676364a39.098182 39.098182 0 0 1 78.196364 0v354.676364a39.098182 39.098182 0 0 1-39.098182 39.098182z m1.117091 408.669091a129.722182 129.722182 0 0 0 129.722182-129.768728H370.036364A129.722182 129.722182 0 0 0 499.805091 895.813818zM864.581818 701.812364H132.794182a39.098182 39.098182 0 0 0 0 78.149818h731.787636a39.098182 39.098182 0 0 0 0-78.196364z"  horiz-adv-x="1024" />

    
    <glyph glyph-name="export" unicode="&#59005;" d="M977.408 492.2368c0 31.3856-25.3952 56.9344-56.8832 56.9344H613.376c-31.3856 0-56.9344-25.4464-56.9344-56.9344v-97.792h-232.96l-3.1744 6.3488c-48.64 102.912-42.3936 240.3328 177.3568 235.4176v-128.256l202.752 193.9456L497.664 896v-125.44C228.5056 777.216 187.2896 554.3936 312.32 400.7936l5.5808-6.2464H213.6576c-31.3856 0-56.9344-25.4976-56.9344-56.9344v-78.6432H40.9088c-31.3856 0-47.616-25.4464-36.1472-56.9344l93.184-255.8976c11.4688-31.3856 46.1312-56.832 77.6192-56.832h762.0096c27.9552 0 43.8784 20.224 38.9632 46.7968 0.5632 3.328 0.9216 6.6048 0.9216 10.0352V492.2368z m-99.4816-279.0912c-28.416 33.2288-94.6176 45.824-126.1056 45.824H227.9424v35.8912c0 15.6672 12.7488 28.416 28.416 28.416h371.2512V449.536c0 15.6672 12.7488 28.416 28.416 28.416h221.9008c15.6672 0 28.3648-12.7488 28.3648-28.416v-318.208c0 32.4096-9.472 59.648-28.3648 81.8176z"  horiz-adv-x="1075" />

    
    <glyph glyph-name="tongzhi" unicode="&#59006;" d="M978.375111 124.643556h-101.831111v285.013333c0 138.581333-80.099556 292.522667-195.868444 292.522667V803.953778c184.433778 0 297.699556-204.8 297.699555-394.353778v-284.956444z m-722.545778 0H154.055111v285.013333c0 192.056889 113.208889 394.24 292.579556 394.24v-101.717333c-114.460444 0-190.805333-153.941333-190.805334-292.579556v-284.956444zM515.299556 895.488h101.831111v-305.265778h-101.831111V895.544889z m-457.955556-770.844444h1017.685333c25.088-9.671111 37.660444-26.680889 37.660445-50.858667 0-24.177778-12.515556-41.130667-37.660445-50.858667H57.400889c-23.153778 13.198222-34.702222 30.151111-34.702222 50.858667s11.548444 37.660444 34.702222 50.858667zM413.582222-48.355556h305.265778c14.961778-7.793778 22.471111-20.48 22.471111-38.115555 0-17.635556-7.509333-30.321778-22.471111-38.172445H413.582222c-17.749333 8.135111-26.624 20.821333-26.624 38.115556 0 17.351111 8.874667 30.094222 26.624 38.172444z"  horiz-adv-x="1137" />

    
    <glyph glyph-name="zhanghao" unicode="&#59007;" d="M320.2048 529.1008a188.416 188.416 0 1 1 376.832 0 188.416 188.416 0 0 1-376.832 0z m292.0448 0a103.6288 103.6288 0 1 0-207.2576 0 103.6288 103.6288 0 0 0 207.2576 0zM900.864 709.888L835.584 655.8208a423.8336 423.8336 0 0 0-54.016-593.3568c-18.6368 130.3552-129.024 225.0752-272.9472 225.0752-143.872 0-254.3104-94.72-272.7424-225.28a423.8336 423.8336 0 0 0 487.424 690.0224l42.3424 73.1136a508.6208 508.6208 0 1 1 135.8848-115.5072h-0.6656zM317.952 7.9872v17.8176c0 100.864 81.9712 176.9472 190.72 176.9472 108.6976 0 190.72-76.0832 190.72-176.9472v-17.8176a419.584 419.584 0 0 0-381.44 0z"  horiz-adv-x="1024" />

    
    <glyph glyph-name="close" unicode="&#59009;" d="M512 896C229.302857 896 0 666.697143 0 384s229.302857-512 512-512 512 229.302857 512 512-229.302857 512-512 512z m210.944-713.289143a29.622857 29.622857 0 0 0-40.228571 0L521.581714 343.771429 360.594286 182.710857a29.696 29.696 0 0 0-40.228572 0 29.696 29.696 0 0 0 0 40.228572L481.28 384 320.365714 544.987429a29.696 29.696 0 0 0 0 40.301714 29.696 29.696 0 0 0 40.228572 0l161.133714-160.182857 160.182857 160.182857a29.696 29.696 0 0 0 40.228572 0 29.696 29.696 0 0 0 0-40.228572L561.883429 384l161.060571-160.987429a29.622857 29.622857 0 0 0 0-40.301714z"  horiz-adv-x="1024" />

    
    <glyph glyph-name="Icon-xiala" unicode="&#59010;" d="M1752.064 703.232L992.768-73.472c-59.904-59.648-111.104-61.44-170.752 0L62.464 703.232C-27.904 793.6-27.904 896 113.664 896h1587.2c138.24-1.792 140.032-105.728 51.2-192.768z"  horiz-adv-x="2048" />

    
    <glyph glyph-name="tuichu" unicode="&#59011;" d="M1015.466667 403.114667L804.238222 614.4a26.510222 26.510222 0 0 1-37.546666 0l-42.666667-42.723556a26.510222 26.510222 0 0 1 0-37.546666l93.184-93.127111H392.419556a26.510222 26.510222 0 0 1-26.510223-26.510223v-60.416c0-14.677333 11.889778-26.510222 26.510223-26.510222h424.561777l-93.184-93.184a26.510222 26.510222 0 0 1 0-37.546666l42.666667-42.666667a26.510222 26.510222 0 0 1 37.546667 0l168.732444 168.732444 42.723556 42.666667a26.510222 26.510222 0 0 1 0 37.546667zM651.548444 895.146667H80.327111C36.408889 895.146667 0.739556 859.534222 0.739556 815.559111v-862.606222c0-43.918222 35.669333-79.530667 79.587555-79.530667h571.164445c43.975111 0 79.587556 35.612444 79.587555 79.530667V64.853333a26.510222 26.510222 0 0 1-26.510222 26.567111h-57.457778a26.510222 26.510222 0 0 1-26.567111-26.567111v-42.552889c0-39.253333 0-39.253333-39.765333-39.253333H149.959111c-39.822222 0-39.822222 0-39.822222 39.822222V746.609778c0 39.879111 0 39.822222 39.822222 39.822222h430.819556c39.822222 0 39.822222-0.341333 39.822222-39.253333v-43.804445c0-14.677333 11.832889-26.567111 26.453333-26.567111h57.457778a26.510222 26.510222 0 0 1 26.567111 26.510222V815.559111c0 43.975111-35.612444 79.587556-79.530667 79.587556z"  horiz-adv-x="1024" />

    
    <glyph glyph-name="fullscreen" unicode="&#59012;" d="M972.8 896h-307.2a51.2 51.2 0 1 1 0-102.4h183.580444l-219.761777-219.818667a51.2 51.2 0 0 1 72.362666-72.362666L921.6 721.180444V537.6a51.2 51.2 0 1 1 102.4 0V844.8a51.2 51.2 0 0 1-51.2 51.2zM409.6 844.8a51.2 51.2 0 0 1-51.2 51.2H51.2a51.484444 51.484444 0 0 1-51.2-51.2v-307.2a51.2 51.2 0 0 1 102.4 0V721.180444l219.818667-219.761777a51.2 51.2 0 0 1 72.362666 72.362666L174.819556 793.6H358.4a51.2 51.2 0 0 1 51.2 51.2zM1024 230.39999999999998a51.2 51.2 0 1 1-102.4 0v-183.580444l-219.818667 219.761777a51.2 51.2 0 0 1-72.362666-72.362666l219.761777-219.818667H665.6a51.2 51.2 0 1 1 0-102.4h307.2a51.427556 51.427556 0 0 1 51.2 51.2v307.2zM358.4-25.600000000000023H174.819556l219.761777 219.818667a51.2 51.2 0 0 1-72.362666 72.362666L102.4 46.819556000000034V230.39999999999998a51.2 51.2 0 1 1-102.4 0v-307.2a51.2 51.2 0 0 1 51.2-51.2h307.2a51.2 51.2 0 1 1 0 102.4z"  horiz-adv-x="1024" />

    
    <glyph glyph-name="username" unicode="&#59013;" d="M219.420444 603.420444a292.579556 292.579556 0 1 1 585.159112 0 292.579556 292.579556 0 0 1-585.159112 0z m73.159112-365.681777A292.579556 292.579556 0 0 1 0-54.84088899999995C0-95.23199999999997 32.938667-128 72.817778-128h878.364444c40.220444 0 72.817778 32.711111 72.817778 73.159111a292.579556 292.579556 0 0 1-292.579556 292.579556H292.579556z"  horiz-adv-x="1024" />

    
    <glyph glyph-name="password" unicode="&#59014;" d="M837.339429 561.054476H749.958095c0 140.336762-107.27619 247.56419-243.907047 247.564191-136.874667 0-243.95581-107.227429-243.95581-247.564191H174.567619C174.567619 729.4780949999999 323.096381 896 505.856 896c182.759619 0 331.483429-166.521905 331.483429-334.945524z m110.884571-143.555047c0 48.176762-39.204571 87.381333-87.381333 87.381333H160.768c-48.176762 0-87.332571-39.204571-87.332571-87.381333v-414.817524c0-48.176762 39.15581-87.381333 87.332571-87.381334H860.647619c48.176762 0 87.381333 39.204571 87.381333 87.381334V417.499429h0.195048z m-368.201143-324.412953c0-36.08381-29.257143-65.536-65.584762-65.536h-9.362285c-36.132571 0-65.584762 29.257143-65.584762 65.536V270.872381c0 36.132571 29.257143 65.584762 65.584762 65.584762h9.362285c36.132571 0 65.584762-29.257143 65.584762-65.584762v-177.785905z"  horiz-adv-x="1024" />

    
    <glyph glyph-name="code" unicode="&#59015;" d="M943.208838 687.6403809999999c-0.975238 30.134857-25.84381 58.61181-55.393524 63.731809 0 0-114.346667 18.041905-178.468571 40.96C629.230933 820.760381 549.944076 883.419429 549.944076 883.419429c-24.722286 17.65181-62.659048 16.579048-85.577143-2.535619 0 0-56.07619-56.612571-160.816762-89.721905-96.743619-38.814476-174.08-42.812952-174.08-42.812953-29.159619-3.803429-54.272-30.72-54.857142-60.854857 0 0-3.900952-154.819048 1.024-290.620952 1.901714-243.078095 289.645714-483.376762 435.053714-483.376762 143.11619 0 390.436571 167.399619 429.348571 479.817143 9.606095 185.441524 3.169524 294.278095 3.169524 294.278095z m-223.280762-213.187048l-247.369143-250.441143a30.817524 30.817524 0 0 0-40.521143-2.243047l-129.219047 102.643809a48.90819 48.90819 0 0 0-5.217524 73.630477 61.244952 61.244952 0 0 0 80.944762 5.802666l59.928381-46.957714 206.116571 194.169905a56.07619 56.07619 0 0 0 76.556191-0.341334c-0.292571 0.292571-0.390095 0.731429-0.731429 1.072762l1.755429-1.755428c-0.292571 0.292571-0.731429 0.390095-1.024 0.682666a54.808381 54.808381 0 0 0-1.219048-76.263619z"  horiz-adv-x="1024" />

    
    <glyph glyph-name="rili" unicode="&#59016;" d="M459.702857 286.793143h70.729143c19.748571 0 35.328 16.749714 35.328 38.034286 0 21.357714-15.506286 38.107429-35.328 38.107428h-70.729143c-19.748571 0-35.328-16.749714-35.328-38.034286-0.073143-21.211429 15.506286-38.034286 35.328-38.034285z m0-152.210286h70.729143c19.748571 0 35.328 16.749714 35.328 38.034286 0 21.357714-15.506286 38.034286-35.328 38.034286h-70.729143c-19.748571 0-35.328-16.676571-35.328-38.034286-0.073143-21.284571 15.506286-38.034286 35.328-38.034286z m388.973714 685.348572H707.218286V857.965714c0 21.284571-15.506286 38.034286-35.328 38.034286-19.748571 0-35.401143-16.749714-35.401143-38.034286v-38.034285H353.645714V857.965714c0 21.284571-15.506286 38.034286-35.328 38.034286-19.748571 0-35.401143-16.749714-35.401143-38.034286v-38.034285H141.458286C63.707429 819.931429 0 751.250286 0 667.574857v-609.206857c0-83.675429 63.634286-152.210286 141.458286-152.210286h707.072c77.750857 0 141.458286 68.534857 141.458285 152.210286V667.648c0 83.675429-63.634286 152.210286-141.312 152.210286z m70.582858-761.417143c0-41.984-31.744-76.141714-70.729143-76.141715H141.458286c-38.912 0-70.729143 34.304-70.729143 76.068572V515.291429h848.530286v-456.850286z m0 532.992H70.729143v76.068571c0 41.984 31.817143 76.214857 70.729143 76.214857h141.458285v-38.034285c0-21.430857 15.652571-38.107429 35.401143-38.107429 19.821714 0 35.328 16.676571 35.328 38.034286v38.034285h282.843429v-38.034285c0-21.357714 15.579429-38.034286 35.401143-38.034286 19.748571 0 35.328 16.676571 35.328 38.034286v38.034285h141.458285c38.912 0 70.729143-34.304 70.729143-76.068571v-76.068571h-0.146285zM247.515429 134.582857h70.729142c19.748571 0 35.328 16.749714 35.328 38.034286 0 21.357714-15.506286 38.034286-35.328 38.034286h-70.729142c-19.748571 0-35.328-16.676571-35.328-38.034286 0-21.284571 15.506286-38.034286 35.328-38.034286zM671.890286 286.72h70.582857c19.821714 0 35.328 16.749714 35.328 38.034286 0 21.357714-15.506286 38.107429-35.328 38.107428h-70.729143c-19.748571 0-35.401143-16.749714-35.401143-38.034285 0.146286-21.211429 15.725714-38.034286 35.547429-38.034286z m-424.374857 0h70.729142c19.748571 0 35.328 16.749714 35.328 38.034286 0 21.357714-15.506286 38.107429-35.328 38.107428h-70.729142c-19.748571 0-35.328-16.749714-35.328-38.034285 0-21.211429 15.506286-38.034286 35.328-38.034286z m424.374857-152.210286h70.582857c19.821714 0 35.328 16.749714 35.328 38.034286 0 21.357714-15.506286 38.034286-35.328 38.034286h-70.729143c-19.748571 0-35.401143-16.676571-35.401143-38.034286 0.146286-21.284571 15.725714-38.034286 35.547429-38.034286z"  horiz-adv-x="1024" />

    
    <glyph glyph-name="yonghuguanli" unicode="&#59017;" d="M750.08 230.1952a100.6592 100.6592 0 0 1-100.5568-100.5568c0-55.4496 45.1072-100.608 100.5568-100.608a100.7104 100.7104 0 0 1 100.608 100.608 100.7104 100.7104 0 0 1-100.608 100.5568z m0-149.2992a48.7936 48.7936 0 0 0 0 97.4848 48.7936 48.7936 0 0 0 0-97.4848z m265.9328 101.2736c-3.7888 19.9168-16.5888 32.768-32.9728 32.768h-2.304a56.9856 56.9856 0 0 0-56.9344 56.9344c0 8.2432 3.584 18.3808 4.9664 21.504a41.728 41.728 0 0 1-15.4624 50.9952l-66.56 36.864a44.9536 44.9536 0 0 1-48.64-9.728c-8.2944-8.4992-30.3104-26.1632-45.5168-26.1632-15.3088 0-37.4784 17.9712-45.7728 26.624a44.8512 44.8512 0 0 1-48.5376 10.1376l-1.2288-0.512-67.7888-37.1712-1.5872-1.024a41.216 41.216 0 0 1-14.0288-49.8176c0.512-1.2288 5.0176-12.288 5.0176-21.7088 0-31.3856-25.5488-56.9344-56.9344-56.9344h-2.6624c-16.0256 0-28.8256-12.8512-32.5632-32.768-0.5632-3.072-5.632-30.6176-5.632-52.8896 0-22.272 5.0688-49.8176 5.632-52.8896 3.7376-19.9168 16.5376-32.768 32.9728-32.768h2.2528c31.3856 0 56.9344-25.6 56.9344-56.9344 0-8.2432-3.584-18.3808-4.9664-21.504a41.7792 41.7792 0 0 1 15.4112-50.9952l65.3312-36.352a44.1856 44.1856 0 0 1 48.9472 10.2912c8.0384 8.704 30.8736 27.8016 46.4896 27.8016 15.7696 0 38.4-19.1488 46.7968-28.416 7.936-8.704 20.0704-13.9264 32.4096-13.9264a42.752 42.752 0 0 1 18.1248 4.096l66.048 36.5056 1.536 1.024a41.216 41.216 0 0 1 14.08 49.7664 65.7408 65.7408 0 0 0-5.0688 21.7088c0 31.3856 25.6 56.9344 56.9344 56.9344h2.6624c16.0256 0 28.8256 12.8512 32.5632 32.768 0.0512 0.256 5.632 29.4912 5.632 52.8896 0 22.272-5.0176 49.8176-5.632 52.8896z m-49.5104-87.6544a108.6976 108.6976 0 0 1-94.5152-107.8272c0-12.6976 3.072-24.7808 5.7856-32.9216l-47.616-26.368a190.976 190.976 0 0 1-19.6608 16.7936c-21.0432 15.616-41.472 23.552-60.6208 23.552-18.944 0-39.2192-7.7824-60.16-23.0912-8.3456-6.144-15.104-12.288-19.456-16.4864l-45.568 25.4976a108.544 108.544 0 0 1 5.7856 33.024 108.6976 108.6976 0 0 1-94.5152 107.8272 252.5696 252.5696 0 0 0-3.2768 34.816c0 11.4688 1.8944 25.856 3.2768 34.7136a108.6976 108.6976 0 0 1 94.5152 107.8272c0 12.6976-3.072 24.7296-5.7856 32.8704l49.2032 27.0336c4.3008-4.0448 11.1104-10.0864 19.5584-16.0768 20.6336-14.6944 40.5504-22.1696 59.136-22.1696 18.432 0 38.1952 7.3216 58.6752 21.76 8.3456 5.888 15.104 11.7248 19.456 15.7184l47.104-26.1632c-2.7136-8.192-5.7856-20.2752-5.7856-32.9728 0-54.9888 40.8064-100.8128 94.464-107.8272 1.3824-9.0112 3.2768-23.3984 3.2768-34.7648 0-11.4176-1.8944-25.7536-3.2768-34.816zM68.096-52.736v56.9344c0 193.6384 149.2992 353.28 339.5584 371.2l-0.0512 0.0512h0.512c11.6224 1.0752 23.3984 1.6896 35.328 1.6896l5.376-0.1024c42.0864 3.2768 105.7792 13.1584 139.0592 42.8544l16.2816 12.6976a257.1264 257.1264 0 0 1 100.096 203.5712c0 142.848-116.992 259.072-260.8128 259.072-143.872 0-260.8128-116.224-260.8128-259.072 0-79.7184 36.5056-153.9072 100.096-203.5712l16.2816-12.6976-19.2-7.6288C110.336 344.9856 0.8704 184.832 0.8704 4.1984v-90.2656c0-18.3808 15.0528-33.28 33.5872-33.28h491.1104a339.8656 339.8656 0 0 0-40.6528 66.56H68.096zM249.856 636.16c0 106.0864 86.8352 192.4096 193.536 192.4096 106.8032 0 193.6384-86.3232 193.6384-192.4096S550.1952 443.8016 443.392 443.8016 249.856 530.0736 249.856 636.16z"  horiz-adv-x="1024" />

    
    <glyph glyph-name="home" unicode="&#59018;" d="M912.330105 74.644211c0-63.649684-51.846737-115.496421-115.442526-115.496422H227.220211a115.604211 115.604211 0 0 0-115.442527 115.442527V528.168421a24.791579 24.791579 0 0 0 9.701053 19.617684L431.157895 783.306105A132.042105 132.042105 0 0 0 512 810.684632a132.042105 132.042105 0 0 0 80.949895-27.378527l309.679158-235.52a24.791579 24.791579 0 0 0 9.701052-19.617684v-453.578105z m41.06779 540.348631L643.934316 850.512842A217.357474 217.357474 0 0 1 512 894.976c-46.565053 0-92.914526-14.767158-131.880421-44.463158L70.494316 614.992842a108.759579 108.759579 0 0 1-43.008-86.770526v-453.793684a199.733895 199.733895 0 0 1 199.733895-199.733895h569.451789a199.733895 199.733895 0 0 1 199.733895 199.733895v453.793684a108.220632 108.220632 0 0 1-43.008 86.770526zM511.892211 425.391158a203.560421 203.560421 0 0 1-203.290948-203.290947v-141.365895c0-23.174737 18.917053-42.145684 42.09179-42.145684 23.174737 0 42.145684 18.970947 42.145684 42.145684v141.365895a119.053474 119.053474 0 0 0 238.053052 0v-141.365895c0-23.174737 18.970947-42.145684 42.145685-42.145684 23.174737 0 42.145684 18.970947 42.145684 42.145684v141.365895a203.398737 203.398737 0 0 1-203.290947 203.290947z"  horiz-adv-x="1024" />

    
    <glyph glyph-name="gerenpingxuan" unicode="&#59019;" d="M508.416-112.64C230.2976-112.64 4.1984 113.4592 4.1984 391.68 4.1472 669.9008 230.2464 896 508.4672 896c278.2208 0 504.32-226.0992 504.32-504.32 0-278.2208-226.0992-504.32-504.32-504.32z m0 924.16c-231.0144 0-419.7888-188.0064-419.7888-419.84a419.84 419.84 0 0 1 419.84-419.84c231.0144 0 419.84 187.9552 419.84 419.84 0 231.8336-188.8256 419.84-419.84 419.84zM671.5904 110.9504a37.7344 37.7344 0 0 0-18.2272 4.9664l-150.6816 81.9712-153.1904-77.824a38.3488 38.3488 0 0 0-39.7824 3.328 36.096 36.096 0 0 0-14.08 37.2736l31.488 168.9088-120.8832 121.7024a39.0656 39.0656 0 0 0-9.1136 38.912 35.584 35.584 0 0 0 30.6176 24.8832l170.5984 22.3232 78.6432 153.1904a39.1168 39.1168 0 0 0 33.9456 20.736c14.08 0 27.3408-8.2944 33.1264-21.504l73.728-154.88 169.728-27.3408a37.9904 37.9904 0 0 0 29.7984-25.6512 38.4 38.4 0 0 0-9.9328-38.0928l-125.0304-118.4256 26.5216-169.728a37.376 37.376 0 0 0-15.7696-36.4544 32.1024 32.1024 0 0 0-21.504-8.2944z m-168.0896 166.4512c5.7856 0 12.3904-1.6384 18.2272-4.9664l101.0176-55.5008-18.2272 114.2784a37.7856 37.7856 0 0 0 11.5712 33.1264l83.6608 79.5136-114.2784 18.2272a38.2464 38.2464 0 0 0-28.16 20.6848l-49.664 104.3456-51.3536-101.888a38.656 38.656 0 0 0-28.9792-19.8656l-114.2784-14.848 81.152-82.0224c9.1136-9.1136 12.3904-21.504 9.9328-33.1264l-21.504-113.4592 102.656 52.224a50.0736 50.0736 0 0 0 18.2272 3.2768z"  horiz-adv-x="1024" />

    
    <glyph glyph-name="reflash" unicode="&#59020;" d="M926.016 314.944c-20.352 4.096-44.736-8.128-48.768-28.416a365.248 365.248 0 0 0-357.568-280.32c-203.136 0-369.728 166.528-369.728 369.728 0 203.136 166.592 369.728 369.728 369.728 93.44 0 186.88-36.544 251.904-101.568H600.96a40.704 40.704 0 0 1-40.64-40.64c0-20.352 16.256-40.64 40.64-40.64h251.904a40.704 40.704 0 0 1 40.64 40.64V855.36A40.704 40.704 0 0 1 852.864 896a40.704 40.704 0 0 1-40.64-40.64v-142.208a443.392 443.392 0 0 1-296.64 113.792C267.776 826.88 64.64 623.744 64.64 375.936c0-247.872 203.2-451.072 451.008-451.072 207.232 0 386.048 142.272 438.848 341.312 4.096 20.352-8.128 40.64-28.416 48.768z"  horiz-adv-x="1024" />

    
    <glyph glyph-name="wenzhang" unicode="&#59021;" d="M875.706182 678.493091l-161.885091 161.838545A188.462545 188.462545 0 0 1 578.653091 895.534545h-333.265455A152.762182 152.762182 0 0 1 93.090909 743.237818v-694.923636c0-83.781818 68.561455-152.343273 152.343273-152.343273h533.131636c83.781818 0 152.343273 68.514909 152.343273 152.296727V543.278545c0 51.432727-19.083636 99.048727-55.202909 135.214546z m-20.945455-630.225455c0-41.890909-34.304-76.148364-76.194909-76.148363H245.434182c-41.890909 0-76.194909 34.257455-76.194909 76.148363V743.191273c0 41.890909 34.304 76.194909 76.194909 76.194909h333.218909a106.589091 106.589091 0 0 0 79.965091-34.257455l161.838545-161.885091c20.945455-20.945455 34.304-51.386182 34.304-79.965091v-495.010909zM321.629091 543.278545h171.287273a38.167273 38.167273 0 0 1 38.167272 38.074182 38.167273 38.167273 0 0 1-38.167272 38.120728H321.629091a38.167273 38.167273 0 0 1-38.167273-38.120728c0-20.945455 17.221818-38.074182 38.167273-38.074182z m304.64-95.185454H321.582545a38.167273 38.167273 0 0 1-38.074181-38.074182c0-20.945455 17.128727-38.120727 38.074181-38.120727h304.686546a38.167273 38.167273 0 0 1 38.074182 38.120727 38.167273 38.167273 0 0 1-38.074182 38.074182z"  horiz-adv-x="1024" />

    
    <glyph glyph-name="edit" unicode="&#59022;" d="M501.666909 18.757818a34.443636 34.443636 0 0 1-2.792727-6.981818l-22.481455-94.72s-1.396364-9.774545 2.792728-14.010182c4.933818-4.189091 14.754909-4.189091 14.754909-4.189091l94.673454 22.434909s5.585455 1.396364 9.122909 2.792728c2.792727 1.396364 6.283636 4.887273 6.283637 4.887272l328.238545 328.238546s6.981818 6.283636 7.68 12.567273c0.698182 6.330182-5.585455 14.056727-5.585454 14.056727l-70.842182 70.842182s-4.887273 5.585455-13.312 5.585454-14.056727-6.981818-14.056728-6.981818l-329.588363-329.634909c-0.698182 1.396364-3.490909-2.792727-4.887273-4.887273zM414.72-87.133091l32.209455 129.024s2.094545 6.981818 4.18909 11.217455c2.839273 4.933818 7.726545 9.821091 7.726546 9.821091l396.241454 396.241454s6.981818 6.330182 9.821091 14.010182c3.537455 8.424727 3.537455 19.642182 3.537455 19.642182V818.920727A75.869091 75.869091 0 0 1 792.669091 894.696727H123.624727A75.869091 75.869091 0 0 1 47.941818 818.920727v-846.475636a75.869091 75.869091 0 0 1 75.729455-75.729455h269.312s7.726545 0.698182 14.010182 5.585455c6.330182 5.632 7.726545 10.565818 7.726545 10.565818zM241.431273 694.085818h436.875636c19.642182 0 35.793455-16.104727 35.793455-35.746909a35.933091 35.933091 0 0 0-35.793455-35.746909H241.477818a35.933091 35.933091 0 0 0-35.793454 35.746909c0 19.642182 16.151273 35.746909 35.793454 35.746909z m0-217.367273h261.585454c19.642182 0 35.746909-16.151273 35.746909-35.793454a35.467636 35.467636 0 0 0-35.746909-35.746909h-261.585454a35.933091 35.933091 0 0 0-35.793455 35.746909c0 19.642182 16.151273 35.793455 35.793455 35.793454z m-35.793455-258.094545c0 19.642182 16.151273 35.746909 35.793455 35.746909h107.287272c19.642182 0 35.746909-16.104727 35.74691-35.746909a35.933091 35.933091 0 0 0-35.74691-35.746909H241.477818a35.933091 35.933091 0 0 0-35.793454 35.746909z"  horiz-adv-x="1024" />

    
    <glyph glyph-name="tuanrijiang" unicode="&#59023;" d="M709.339429 896c60.17219 0 110.689524-41.74019 123.952761-97.865143h77.775239c47.932952 0 86.79619-38.473143 87.625142-86.162286v-73.532952a299.934476 299.934476 0 0 0-97.231238-221.037714l-1.852952-1.706667-74.264381-66.950095a34.620952 34.620952 0 0 0-5.753905-4.193524 300.129524 300.129524 0 0 0-274.870857-199.68v-58.514286h103.862857c87.917714 0 160.182857-67.047619 161.596953-151.405714v-23.795809c0-19.017143-15.408762-34.474667-34.474667-34.474667H244.687238a34.523429 34.523429 0 0 0-34.474667 34.474667v21.26019c0 85.528381 72.801524 153.941333 161.596953 153.941333h103.862857v58.61181a300.129524 300.129524 0 0 0-272.091429 199.192381 35.108571 35.108571 0 0 0-5.851428 4.242286L123.465143 415.353905l-1.852953 1.706666A299.934476 299.934476 0 0 0 24.380952 638.147048V711.631238a87.625143 87.625143 0 0 0 87.625143 86.162286H189.68381A127.463619 127.463619 0 0 0 313.734095 896h395.605334zM648.533333 17.310476h-128.877714a34.523429 34.523429 0 0 0-18.968381 0H371.809524c-46.421333 0-84.260571-31.207619-91.37981-71.241143l-0.048762-0.390095h459.678477l-0.097524 0.390095c-7.021714 39.643429-44.080762 70.607238-89.819429 71.289905h-1.560381z m60.757334 809.691429H313.734095c-32.231619 0-58.368-26.185143-58.368-58.416762v-323.876572a230.936381 230.936381 0 0 1 230.936381-230.936381h50.468572a230.936381 230.936381 0 0 1 230.936381 230.936381V768.585143c0 32.231619-26.136381 58.416762-58.368 58.416762zM186.270476 728.746667H111.37219a18.578286 18.578286 0 0 1-17.94438-18.529524v-74.020572A230.936381 230.936381 0 0 1 169.691429 466.553905l16.627809-14.969905V728.746667z m724.748191 0.341333H836.754286v-277.113905L853.333333 466.895238a230.936381 230.936381 0 0 1 76.312381 169.545143V710.509714a18.578286 18.578286 0 0 1-17.944381 18.578286h-0.633904z"  horiz-adv-x="1024" />

    
    <glyph glyph-name="text" unicode="&#59024;" d="M87.808 522.540522l20.535652 106.718608h72.403478L165.843478 522.540522h97.558261l14.892522 106.718608h68.296348l-8.214261-58.768695-45.701565-47.949913h91.91513c9.928348 0 18.654609 3.183304 26.178783 9.538782 7.535304 6.355478 11.987478 14.525217 13.356521 24.486957l45.701566 327.390609H50.309565l15.916522-18.565566L0 522.540522h87.808z m278.327652 252.994782h-64.957217l7.323826 60.226783h64.957217l-7.323826-60.237913z m-157.028174 0h-64.545391l10.841043 60.226783h61.44l-7.735652-60.237913z m144.973913-96.389565h-64.957217l7.334956 48.194783h64.957218l-7.334957-48.194783z m-168.559304 0h-65.046261l9.627826 48.194783h62.653218l-7.234783-48.194783z m550.66713 60.237913l19.099826 93.862957h70.678261l-12.377043-93.862957h104.225391l9.805913 74.440348-17.029565-20.49113h-9.282783l11.865044 90.624H659.823304l16.005566-19.422609-25.288348-125.150609h85.648695z m-109.746087 72.292174l-15.36 72.281044h-81.007304l15.36-72.281044h81.007304zM505.989565 534.583652l125.406609 30.541913 7.112348 51.255652-37.576348-10.351304L627.322435 799.610435h-114.754783l-6.589217-49.174261h29.952L505.989565 534.583652z m207.805218-24.086261l45.690434 28.772174 32.868174-28.772174h111.938783l-79.081739 70.856348 77.534608 49.552696 12.844522 96.434087H655.749565l-6.678261-49.552696h179.211131l-2.048-15.449043-51.867826-35.172174-43.642435 39.969391h-83.18887l-3.59513-25.577739 65.725217-58.067478-107.308521-72.993392h111.415652z m571.436521 12.043131l27.558957 198.455652h89.444174l7.279304 52.090435H1320.069565L1337.744696 896h-117.003131l17.163131-18.231652-15.081739-104.69287h-95.165218l-7.279304-52.090435h95.165217l-27.570087-198.444521h97.246609zM1108.324174 811.675826l-18.966261 72.281044h-77.401043l18.45426-72.281044h77.913044zM978.832696 522.540522L1112.82087 551.290435l7.557565 53.849043-44.833392-7.312695 27.202783 201.794782H982.361043l-6.544695-49.664h34.248348l-31.232-227.417043z m587.942956-12.043131l47.526957 108.410435h-71.034435l-37.387131-108.410435h60.883479zM420.240696-115.95687l7.145739 53.470609h-106.573913l21.414956 153.199304h96.879305l6.633739 48.840348h-96.890435l14.792348 105.906087H245.849043l16.829218-19.021913-40.292174-288.923826h-58.63513l-7.134609-53.470609h263.624348zM156.616348 161.124174l-17.675131 72.292174H60.237913l18.198261-72.292174h78.180174zM24.097391-115.95687l125.562435 25.878261 6.956522 51.2-35.238957-6.856348 25.800348 194.816h-114.643478l-6.956522-50.153739h26.802087L24.097391-115.95687zM738.771478-128l10.985739 77.801739h169.516522l6.789565 49.274435h-169.516521l3.673043 24.375652h154.334609l25.121391 178.432H877.412174l24.598261 43.575652H782.180174l12.032-14.525217-16.740174-29.050435h-72.726261l-12.020869 43.575652h-109.356522l14.135652-16.595478 7.312696-26.980174h-72.192l-25.121392-178.420869H660.813913l-3.673043-24.375653H488.69287l-6.789566-49.285565H650.351304L639.365565-128h99.394783zM852.034783 124.994783h-68.975305l3.305739 24.08626h68.975305l-3.305739-24.097391z m-168.737392 0H614.4l3.383652 24.08626h68.897391l-3.383652-24.097391z m156.683131-60.237913h-68.964174l3.305739 24.08626h68.975304l-3.316869-24.08626z m-168.737392 0h-68.897391l3.394783 24.08626h68.897391l-3.394783-24.08626zM1146.579478-128l51.300174 313.466435h146.721391l-36.941913-266.039652L1262.525217-128h73.872696c9.928348 0 18.643478 3.183304 26.167652 9.538783 7.524174 6.355478 11.976348 14.525217 13.345392 24.486956l45.657043 327.390609h-306.788174l15.905391-18.565565L1072.183652-128h74.395826z m-62.341565 289.124174l-11.319652 72.292174h-73.015652l11.319652-72.292174h73.015652z m231.234783-108.410435l5.620869 39.624348h-35.250087l3.06087 21.904696h30.653217l5.62087 39.635478h-30.653218l2.56 19.300174h-65.391304l-2.56-19.300174h-30.130087l-5.620869-39.624348h30.141217l-3.072-21.915826h-34.226087l-5.609739-39.624348h134.856348zM963.762087-128l104.025043 30.464 7.424 52.290783-19.099826-7.101218 28.126609 189.384348h-108.8l-7.424-49.753043h27.603478L963.750957-128z m334.146783 60.237913l15.215304 108.410435h-129.335652l-15.226435-108.410435h129.346783z m-51.901218 24.086261h-29.250782l6.878608 48.194783h29.261913l-6.889739-48.194783z m396.644174-72.281044l31.632696 224.667827h78.803478l22.294261 39.067826h37.843478l-21.77113-154.223305-17.630609 90.479305h-88.653913l22.817391-117.214609h79.315479l-4.674783-33.936696-46.135652-48.840348h87.618782c10.017391 0 18.843826 3.33913 26.445913 10.028522a39.457391 39.457391 0 0 1 13.467826 24.932174l39.40174 277.615304h-100.051479l27.993044 48.840348h-118.205218l12.443827-13.879652-44.588522-77.111652 7.257043 51.923478h-65.324521l21.25913 39.067826h-118.205217l12.443826-13.879652-14.002087-25.188174h-33.168696l-45.634783-322.337391h197.008696z m-66.548869 180.71374h-34.081392l14.102261 84.324173h34.092522l-14.113391-84.324173z m-12.043131-132.518957h-34.081391l14.102261 84.324174h34.081391l-14.102261-84.324174zM2325.147826-128l10.985739 80.083478-22.483478-20.023652h-278.338783l23.017739 164.897391h34.53774l-18.843826-134.867478h233.861565l18.832695 134.867478h39.757913l6.811827 50.053566h-39.769044l12.032 85.348174H2230.984348l13.078261-14.747827-9.939479-70.600347h-35.060869l12.032 85.348174h-114.042435l12.555131-15.282087-9.939479-70.066087h-34.537739l12.032 86.405565h-119.273739l17.252174-20.034783-9.405217-66.370782h-29.829566l-6.789565-50.053566h29.818435L1927.535304-128h397.601392z m-108.343652 144.562087h-36.285217l11.920695 84.335304h36.285218l-11.909566-84.335304zM2533.019826-128l39.290435 136.114087h-19.901218l39.290435 34.025739h70.177392l29.851826-34.025739h-19.901218L2652.449391-128h99.517218l13.623652 96.923826h69.654261l-63.888696 73.216h44.521739l27.225044 191.276522h-398.06887l17.285565-19.589565-24.620521-171.686957h44.521739l-84.858435-73.216h63.899826L2433.502609-128h99.517217z m209.441391 289.124174h-55.963826l4.262957 24.097391h55.963826l-4.262957-24.097391z m-144.595478 0h-55.941565l4.307478 24.097391h55.930435l-4.296348-24.097391z m132.552348-72.281044h-55.974957l4.262957 24.097392h55.986087l-4.274087-24.097392z m-132.563478 0h-55.930435l4.307478 24.097392h55.930435l-4.296348-24.097392zM2974.519652-128l59.570087 54.138435L3120.862609-128h175.604869l8.214261 57.744696h-135.557565l-77.534609 48.461913 60.082087 54.650434h147.878957l18.999652 137.138087h-141.723826l2.05913 14.436174h151.474087l6.678261 48.973913h-409.755826l-6.678261-48.973913h160.723478l-2.05913-14.436174h-160.723478l16.951652-19.589565-16.439652-117.548522h125.295304l-24.130783-22.171826-10.796521 7.223653h-121.689044l82.67687-52.079305L2867.2-128h107.319652z m95.321044 244.602435h-46.013218l2.159305 16.773565H3072l-2.170435-16.773565z m144.584347 0h-46.035478l2.137044 16.773565h46.046608l-2.137043-16.773565z m-144.584347-47.894261h-46.013218l2.159305 16.183652H3072l-2.170435-16.183652z m132.541217 0h-46.046609l2.148174 16.183652h46.046609l-2.148174-16.183652zM3456.478609-128l27.937391 196.096h50.565565l6.856348 49.41913h-50.053565l18.44313 127.944348h-75.341913l6.322087-20.813913-15.282087-107.141565h-57.945043l-6.856348-49.41913h57.433043L3390.630957-128h65.858782z m341.815652 204.8l5.676522 39.936h-83.033044l2.070261 14.703304h83.021913l5.676522 39.936h-83.545044l2.070261 15.237566h83.533913l5.153392 40.45913h-83.021914l2.582261 18.387478h-95.910956l13.412174-18.387478H3573.982609l-5.153392-40.45913h82.498783l-2.05913-15.237566h-81.986783l-5.676522-39.936h82.498783l-2.059131-14.703304h-82.498782l-5.676522-39.936h244.413217z m-253.395478 48.194783l21.036521 96.367304h-39.68l-20.557913-96.378435h39.201392z m-116.424348 0l4.941913 96.367304h-43.809391l-4.385392-96.378435h43.264zM3598.469565-128l6.711652 46.525217h87.774609l-2.582261-18.409739-24.264348-28.115478h61.952c9.638957 0 17.029565 3.149913 22.194087 9.46087 5.164522 6.299826 8.43687 14.402783 9.817044 24.286608l22.706087 159.009392h-225.613913L3529.783652-128h68.674783z m-82.309565 12.04313l13.634783 168.659479h-48.306087l-11.920696-168.659479h46.592z m-139.130435 0l32.300522 168.659479h-39.991652l-32.289392-168.659479h39.980522z m330.718609 121.822609h-93.618087l2.749217 21.392696h93.629218l-2.760348-21.392696z m0-60.237913h-93.618087l2.749217 21.403826h93.629218l-2.760348-21.403826z m512.467478 191.410087l80.595478 108.410435h-88.064l-80.584347-108.410435h88.052869z m-341.047652 48.194783l234.317913 6.600347 6.622609 41.583305-234.317913-6.622609-6.622609-41.572174z m205.467826-72.292174l23.418435 60.237913h-60.905739l-23.418435-60.237913h60.905739z m-72.948869 0l-4.307479 60.237913h-55.930435l4.296348-60.237913h55.941566z m-84.335305 0l-4.296348 60.237913h-55.941565l4.307478-60.237913h55.930435z m268.254609-108.421565l81.107478 108.421565h-87.552l-81.107478-108.421565h87.552zM3988.791652-128l22.706087 158.141217h77.634783l6.867478 47.33774h-78.169043l3.695304 23.418434h-90.312348l-3.695304-23.418434h-77.645913l-6.856348-47.33774h78.157913L3898.468174-128h90.312348z m87.485218 0l7.68 144.562087h-65.168696L4011.664696-128h64.623304z m-197.453913 0l36.474434 144.562087h-59.91513L3818.918957-128h59.904z m291.550608 0l82.242783 120.475826h-86.427826L4083.95687-128h86.416695z m291.762087 108.421565l31.421218 216.854261h-77.022609l-31.410087-216.854261h77.022609z m-11.364174-72.281043l6.64487 48.194782h-77.690435l-6.64487-48.194782h77.690435z"  horiz-adv-x="4496" />

    
    </font>
</defs>
</svg>
