<svg t="1597651839704" class="icon" viewBox="0 0 1024 1024" version="1.1" xmlns="http://www.w3.org/2000/svg" p-id="3126" width="200" height="200"><path d="M503.466667 192c-12.8 21.333333-21.333333 42.666667-27.733334 66.133333H128c-6.4 0-12.8 6.4-12.8 12.8v130.133334c0 6.4 6.4 12.8 12.8 12.8h358.4c12.8 32 32 61.866667 57.6 85.333333L128 501.333333c-6.4 0-12.8 6.4-12.8 12.8V640c0 6.4 6.4 12.8 12.8 12.8h597.333333c6.4 0 12.8-4.266667 12.8-10.666667V576c25.6-2.133333 49.066667-6.4 70.4-14.933333v91.733333c0 14.933333-4.266667 29.866667-14.933333 42.666667 8.533333 12.8 14.933333 25.6 14.933333 42.666666v153.6c0 38.4-32 70.4-70.4 70.4H113.066667c-38.4 0-70.4-32-70.4-70.4v-153.6c0-14.933333 4.266667-29.866667 12.8-42.666666-8.533333-12.8-12.8-25.6-12.8-42.666667v-153.6c0-14.933333 4.266667-29.866667 12.8-42.666667-8.533333-12.8-12.8-25.6-12.8-42.666666v-153.6C44.8 224 74.666667 192 113.066667 192h390.4zM725.333333 736H128c-6.4 0-12.8 6.4-12.8 12.8v128c0 6.4 6.4 12.8 12.8 12.8h597.333333c6.4 0 12.8-4.266667 12.8-10.666667v-130.133333c0-8.533333-4.266667-12.8-12.8-12.8z m-55.466666 46.933333c17.066667 0 29.866667 12.8 29.866666 29.866667 0 17.066667-12.8 29.866667-29.866666 29.866667h-181.333334c-17.066667 0-29.866667-12.8-29.866666-29.866667 0-17.066667 12.8-29.866667 29.866666-29.866667h181.333334z m-490.666667-4.266666c10.666667-6.4 23.466667-6.4 34.133333 0s17.066667 17.066667 17.066667 29.866666c0 19.2-14.933333 34.133333-34.133333 34.133334-19.2 0-34.133333-14.933333-34.133334-34.133334 0-10.666667 6.4-23.466667 17.066667-29.866666z m115.2 0c10.666667-6.4 23.466667-6.4 34.133333 0s17.066667 17.066667 17.066667 29.866666c0 19.2-14.933333 34.133333-34.133333 34.133334-19.2 0-34.133333-14.933333-34.133334-34.133334 0-10.666667 6.4-23.466667 17.066667-29.866666z m309.333333-232.533334c29.866667 14.933333 61.866667 25.6 96 29.866667v2.133333c0 17.066667-12.8 29.866667-29.866666 29.866667h-181.333334c-17.066667 0-29.866667-12.8-29.866666-29.866667 0-17.066667 12.8-29.866667 29.866666-29.866666l115.2-2.133334z m-424.533333-4.266666c10.666667-6.4 23.466667-6.4 34.133333 0s17.066667 17.066667 17.066667 29.866666c0 19.2-14.933333 34.133333-34.133333 34.133334-19.2 0-34.133333-14.933333-34.133334-34.133334 0-12.8 6.4-23.466667 17.066667-29.866666z m115.2 0c10.666667-6.4 23.466667-6.4 34.133333 0s17.066667 17.066667 17.066667 29.866666c0 19.2-14.933333 34.133333-34.133333 34.133334-19.2 0-34.133333-14.933333-34.133334-34.133334 0-12.8 6.4-23.466667 17.066667-29.866666z m0-234.666667c10.666667-6.4 23.466667-6.4 34.133333 0s17.066667 17.066667 17.066667 29.866667c0 19.2-14.933333 34.133333-34.133333 34.133333-19.2 0-34.133333-14.933333-34.133334-34.133333 0-10.666667 6.4-23.466667 17.066667-29.866667z m-115.2 0c10.666667-6.4 23.466667-6.4 34.133333 0s17.066667 17.066667 17.066667 29.866667c0 12.8-6.4 23.466667-17.066667 29.866666-10.666667 6.4-23.466667 6.4-34.133333 0s-17.066667-17.066667-17.066667-29.866666c0-10.666667 6.4-23.466667 17.066667-29.866667z m290.133333 6.4v6.4c0 14.933333 2.133333 29.866667 4.266667 44.8-8.533333-4.266667-14.933333-14.933333-14.933333-27.733333-2.133333-8.533333 4.266667-17.066667 10.666666-23.466667z" p-id="3127"></path><path d="M725.333333 66.133333c-51.2 0-100.266667 14.933333-140.8 42.666667-68.266667 42.666667-115.2 121.6-115.2 211.2 0 140.8 115.2 256 256 256s256-115.2 256-256c-2.133333-140.8-115.2-253.866667-256-253.866667zM782.933333 320c-6.4 6.4-14.933333 6.4-21.333333 0l-21.333333-23.466667v115.2c0 8.533333-6.4 17.066667-14.933334 17.066667-8.533333 0-14.933333-8.533333-14.933333-17.066667v-115.2l-21.333333 23.466667c-6.4 6.4-14.933333 6.4-21.333334 0-2.133333-2.133333-4.266667-8.533333-4.266666-12.8 0-4.266667 2.133333-8.533333 4.266666-12.8l49.066667-51.2c2.133333-2.133333 6.4-4.266667 10.666667-4.266667s6.4 2.133333 10.666666 6.4l49.066667 51.2c2.133333 6.4 2.133333 17.066667-4.266667 23.466667z" p-id="3128"></path></svg>
