<svg t="1593175258174" class="icon" viewBox="0 0 1024 1024" version="1.1" xmlns="http://www.w3.org/2000/svg" p-id="61496" width="200" height="200"><path d="M286.276385 320.99976l0 176.752529c0 138.503351 91.779242 257.759289 228.967643 290.380188 137.20285-32.635349 228.967643-151.876836 228.967643-290.380188L744.21167 320.99976c-83.853411-5.498229-160.149467-28.632696-228.967643-75.746955C446.440302 292.359839 370.165921 315.501531 286.276385 320.99976zM663.667311 413.812178c4.212178 4.436153 4.212178 11.632259 0 16.068412l-164.744571 173.400127c-0.53465 1.329401-1.300501 2.572102-2.326452 3.655853-3.041727 3.200677-7.441755 4.082128-11.249333 2.666027-1.799026-0.484075-3.496903-1.459451-4.905779-2.955027-0.736951-0.765851-1.336626-1.632851-1.820701-2.550427L366.820744 486.409031c-4.219403-4.436153-4.219403-11.632259 0-16.068412 4.212178-4.436153 11.054258-4.436153 15.259211 0l106.301503 111.893657 160.019417-168.422098C652.620278 409.376025 659.455133 409.376025 663.667311 413.812178z" p-id="61497" fill="#cdcdcd"></path><path d="M515.236802 8.850631c-276.999478 0-501.545417 224.545939-501.545417 501.545417 0 276.977803 224.545939 501.516517 501.545417 501.516517 276.992253 0 501.538192-224.538714 501.538192-501.516517C1016.774995 233.396571 792.229055 8.850631 515.236802 8.850631zM769.643689 497.75229c0 149.015734-103.382601 280.857631-251.408509 315.075256l-2.449277 0.556325-3.496903-0.5491c-148.090933-34.232075-251.466309-166.066747-251.466309-315.082481L260.822691 295.748367l12.723234 0c85.984788-3.764228 165.813871-34.535525 235.361772-83.882311l6.32188-4.493953 6.343555 4.493953c69.576801 49.346786 149.384209 80.110859 235.340097 83.882311l12.723234 0L769.636464 497.75229z" p-id="61498" fill="#cdcdcd"></path></svg>