<svg t="1593779901453" class="icon" viewBox="0 0 1024 1024" version="1.1" xmlns="http://www.w3.org/2000/svg" p-id="2308" width="200" height="200"><path d="M627.2 806.4c6.4-10.666667 10.666667-21.333333 14.933333-34.133333 12.8-32 23.466667-68.266667 29.866667-108.8h115.2c-32 66.133333-89.6 117.333333-160 142.933333z m-390.4-142.933333h115.2c6.4 40.533333 17.066667 76.8 29.866667 108.8 4.266667 12.8 10.666667 23.466667 14.933333 34.133333-68.266667-25.6-125.866667-78.933333-160-142.933333zM211.2 426.666667h132.266667c-2.133333 27.733333-4.266667 57.6-4.266667 85.333333 0 27.733333 2.133333 55.466667 4.266667 83.2H211.2v6.4c-8.533333-27.733333-12.8-57.6-12.8-89.6 0-27.733333 4.266667-57.6 12.8-85.333333z m187.733333-206.933334c-6.4 10.666667-10.666667 21.333333-14.933333 34.133334-12.8 32-23.466667 66.133333-29.866667 106.666666h-115.2c34.133333-64 91.733333-113.066667 160-140.8zM789.333333 360.533333h-115.2c-6.4-38.4-17.066667-74.666667-29.866666-106.666666-4.266667-12.8-10.666667-23.466667-14.933334-34.133334 66.133333 27.733333 123.733333 76.8 160 140.8zM682.666667 426.666667h134.4c8.533333 27.733333 12.8 55.466667 12.8 85.333333a341.333333 341.333333 0 0 1-10.666667 83.2L682.666667 597.333333c2.133333-27.733333 4.266667-55.466667 4.266666-83.2 0-29.866667 0-59.733333-4.266666-87.466666zM514.133333 198.4c29.866667 0 70.4 59.733333 91.733334 162.133333h-183.466667c21.333333-102.4 59.733333-162.133333 91.733333-162.133333z m-102.4 396.8c-2.133333-25.6-4.266667-53.333333-4.266666-83.2s2.133333-59.733333 4.266666-85.333333h204.8c2.133333 27.733333 4.266667 55.466667 4.266667 85.333333s-2.133333 57.6-4.266667 83.2h-204.8z m102.4 232.533333c-29.866667 0-70.4-61.866667-91.733333-164.266666h185.6c-23.466667 104.533333-64 164.266667-93.866667 164.266666z m0-697.6c-211.2 0-381.866667 170.666667-381.866666 381.866667 0 211.2 170.666667 381.866667 381.866666 381.866667S896 725.333333 896 514.133333s-172.8-384-381.866667-384z" p-id="2309"></path></svg>