<svg t="1593779935927" class="icon" viewBox="0 0 1024 1024" version="1.1" xmlns="http://www.w3.org/2000/svg" p-id="2427" width="200" height="200"><path d="M379.733333 665.6l110.933334 61.866667V576l-21.333334-10.666667-110.933333-64v125.866667l-25.6 12.8-93.866667-53.333333L128 648.533333v130.133334l110.933333 61.866666 110.933334-61.866666V682.666667l29.866666-17.066667z m288-38.4v-125.866667L533.333333 576v153.6l110.933334-61.866667 29.866666 14.933334v96l110.933334 61.866666 110.933333-61.866666v-130.133334l-110.933333-61.866666-96 53.333333-21.333334-12.8z m-288-166.4l132.266667 74.666667 21.333333-12.8 110.933334-61.866667-110.933334-61.866667V384l89.6-51.2V206.933333l-110.933333-64-110.933333 64v125.866667L490.666667 384v14.933333l-110.933334 61.866667z" p-id="2428"></path></svg>