<svg t="1604989572519" class="icon" viewBox="0 0 1024 1024" version="1.1" xmlns="http://www.w3.org/2000/svg" p-id="2999" width="200" height="200"><path d="M875.706182 217.506909l-161.885091-161.838545A188.462545 188.462545 0 0 0 578.653091 0.465455h-333.265455A152.762182 152.762182 0 0 0 93.090909 152.762182v694.923636c0 83.781818 68.561455 152.343273 152.343273 152.343273h533.131636c83.781818 0 152.343273-68.514909 152.343273-152.296727V352.721455c0-51.432727-19.083636-99.048727-55.202909-135.214546z m-20.945455 630.225455c0 41.890909-34.304 76.148364-76.194909 76.148363H245.434182c-41.890909 0-76.194909-34.257455-76.194909-76.148363V152.808727c0-41.890909 34.304-76.194909 76.194909-76.194909h333.218909a106.589091 106.589091 0 0 1 79.965091 34.257455l161.838545 161.885091c20.945455 20.945455 34.304 51.386182 34.304 79.965091v495.010909z" p-id="3000"></path><path d="M321.629091 352.721455h171.287273a38.167273 38.167273 0 0 0 38.167272-38.074182 38.167273 38.167273 0 0 0-38.167272-38.120728H321.629091a38.167273 38.167273 0 0 0-38.167273 38.120728c0 20.945455 17.221818 38.074182 38.167273 38.074182z m304.64 95.185454H321.582545a38.167273 38.167273 0 0 0-38.074181 38.074182c0 20.945455 17.128727 38.120727 38.074181 38.120727h304.686546a38.167273 38.167273 0 0 0 38.074182-38.120727 38.167273 38.167273 0 0 0-38.074182-38.074182z" p-id="3001"></path></svg>