<svg t="1594383997313" class="icon" viewBox="0 0 1024 1024" version="1.1" xmlns="http://www.w3.org/2000/svg" p-id="2414" width="200" height="200"><path d="M864 785.066667c0 55.466667-44.8 102.4-102.4 102.4H260.266667c-55.466667 0-102.4-44.8-102.4-102.4V386.133333c0-6.4 2.133333-12.8 8.533333-17.066666l273.066667-206.933334c21.333333-14.933333 44.8-23.466667 70.4-23.466666 25.6 0 51.2 8.533333 70.4 23.466666L853.333333 369.066667c6.4 4.266667 8.533333 10.666667 8.533334 17.066666v398.933334h2.133333z m36.266667-475.733334L627.2 102.4C595.2 76.8 552.533333 64 512 64c-40.533333 0-81.066667 12.8-115.2 38.4L123.733333 309.333333c-23.466667 19.2-38.4 46.933333-38.4 76.8v398.933334c0 98.133333 78.933333 174.933333 174.933334 174.933333h501.333333c98.133333 0 174.933333-78.933333 174.933333-174.933333V386.133333c2.133333-29.866667-12.8-57.6-36.266666-76.8z" p-id="2415"></path><path d="M512 475.733333c-98.133333 0-179.2 81.066667-179.2 179.2v123.733334c0 21.333333 17.066667 36.266667 36.266667 36.266666s36.266667-17.066667 36.266666-36.266666v-123.733334c0-57.6 46.933333-104.533333 104.533334-104.533333s104.533333 46.933333 104.533333 104.533333v123.733334c0 21.333333 17.066667 36.266667 36.266667 36.266666 21.333333 0 36.266667-17.066667 36.266666-36.266666v-123.733334c4.266667-98.133333-76.8-179.2-174.933333-179.2z" p-id="2416"></path></svg>