<svg t="1604989427760" class="icon" viewBox="0 0 1024 1024" version="1.1" xmlns="http://www.w3.org/2000/svg" p-id="2858" width="200" height="200"><path d="M508.416 1008.64C230.2976 1008.64 4.1984 782.5408 4.1984 504.32 4.1472 226.0992 230.2464 0 508.4672 0c278.2208 0 504.32 226.0992 504.32 504.32 0 278.2208-226.0992 504.32-504.32 504.32z m0-924.16c-231.0144 0-419.7888 188.0064-419.7888 419.84a419.84 419.84 0 0 0 419.84 419.84c231.0144 0 419.84-187.9552 419.84-419.84 0-231.8336-188.8256-419.84-419.84-419.84z" p-id="2859"></path><path d="M671.5904 785.0496a37.7344 37.7344 0 0 1-18.2272-4.9664l-150.6816-81.9712-153.1904 77.824a38.3488 38.3488 0 0 1-39.7824-3.328 36.096 36.096 0 0 1-14.08-37.2736l31.488-168.9088-120.8832-121.7024a39.0656 39.0656 0 0 1-9.1136-38.912 35.584 35.584 0 0 1 30.6176-24.8832l170.5984-22.3232 78.6432-153.1904a39.1168 39.1168 0 0 1 33.9456-20.736c14.08 0 27.3408 8.2944 33.1264 21.504l73.728 154.88 169.728 27.3408a37.9904 37.9904 0 0 1 29.7984 25.6512 38.4 38.4 0 0 1-9.9328 38.0928l-125.0304 118.4256 26.5216 169.728a37.376 37.376 0 0 1-15.7696 36.4544 32.1024 32.1024 0 0 1-21.504 8.2944z m-168.0896-166.4512c5.7856 0 12.3904 1.6384 18.2272 4.9664l101.0176 55.5008-18.2272-114.2784a37.7856 37.7856 0 0 1 11.5712-33.1264l83.6608-79.5136-114.2784-18.2272a38.2464 38.2464 0 0 1-28.16-20.6848l-49.664-104.3456-51.3536 101.888a38.656 38.656 0 0 1-28.9792 19.8656l-114.2784 14.848 81.152 82.0224c9.1136 9.1136 12.3904 21.504 9.9328 33.1264l-21.504 113.4592 102.656-52.224a50.0736 50.0736 0 0 1 18.2272-3.2768z" p-id="2860"></path></svg>