<svg t="1593780052857" class="icon" viewBox="0 0 1024 1024" version="1.1" xmlns="http://www.w3.org/2000/svg" p-id="3040" width="200" height="200"><path d="M170.666667 618.666667h320c23.466667 0 42.666667 19.2 42.666666 42.666666s-19.2 42.666667-42.666666 42.666667H170.666667c-23.466667 0-42.666667-19.2-42.666667-42.666667s19.2-42.666667 42.666667-42.666666zM746.666667 810.666667c-83.2 0-149.333333-66.133333-149.333334-149.333334s66.133333-149.333333 149.333334-149.333333 149.333333 66.133333 149.333333 149.333333-68.266667 149.333333-149.333333 149.333334z m0-213.333334c-36.266667 0-64 27.733333-64 64s27.733333 64 64 64 64-27.733333 64-64-29.866667-64-64-64zM512 320h320c23.466667 0 42.666667 19.2 42.666667 42.666667s-19.2 42.666667-42.666667 42.666666H512c-23.466667 0-42.666667-19.2-42.666667-42.666666s19.2-42.666667 42.666667-42.666667zM277.333333 512c-83.2 0-149.333333-66.133333-149.333333-149.333333s66.133333-149.333333 149.333333-149.333334 149.333333 66.133333 149.333334 149.333334-68.266667 149.333333-149.333334 149.333333z m0-213.333333c-36.266667 0-64 27.733333-64 64s27.733333 64 64 64 64-27.733333 64-64c0-34.133333-29.866667-64-64-64z" p-id="3041"></path></svg>