<svg t="1604989370640" class="icon" viewBox="0 0 1024 1024" version="1.1" xmlns="http://www.w3.org/2000/svg" p-id="2574" width="200" height="200"><path d="M750.08 665.8048a100.6592 100.6592 0 0 0-100.5568 100.5568c0 55.4496 45.1072 100.608 100.5568 100.608a100.7104 100.7104 0 0 0 100.608-100.608 100.7104 100.7104 0 0 0-100.608-100.5568z m0 149.2992a48.7936 48.7936 0 0 1 0-97.4848 48.7936 48.7936 0 0 1 0 97.4848z m265.9328-101.2736c-3.7888-19.9168-16.5888-32.768-32.9728-32.768h-2.304a56.9856 56.9856 0 0 1-56.9344-56.9344c0-8.2432 3.584-18.3808 4.9664-21.504a41.728 41.728 0 0 0-15.4624-50.9952l-66.56-36.864a44.9536 44.9536 0 0 0-48.64 9.728c-8.2944 8.4992-30.3104 26.1632-45.5168 26.1632-15.3088 0-37.4784-17.9712-45.7728-26.624a44.8512 44.8512 0 0 0-48.5376-10.1376l-1.2288 0.512-67.7888 37.1712-1.5872 1.024a41.216 41.216 0 0 0-14.0288 49.8176c0.512 1.2288 5.0176 12.288 5.0176 21.7088 0 31.3856-25.5488 56.9344-56.9344 56.9344h-2.6624c-16.0256 0-28.8256 12.8512-32.5632 32.768-0.5632 3.072-5.632 30.6176-5.632 52.8896 0 22.272 5.0688 49.8176 5.632 52.8896 3.7376 19.9168 16.5376 32.768 32.9728 32.768h2.2528c31.3856 0 56.9344 25.6 56.9344 56.9344 0 8.2432-3.584 18.3808-4.9664 21.504a41.7792 41.7792 0 0 0 15.4112 50.9952l65.3312 36.352a44.1856 44.1856 0 0 0 48.9472-10.2912c8.0384-8.704 30.8736-27.8016 46.4896-27.8016 15.7696 0 38.4 19.1488 46.7968 28.416 7.936 8.704 20.0704 13.9264 32.4096 13.9264a42.752 42.752 0 0 0 18.1248-4.096l66.048-36.5056 1.536-1.024a41.216 41.216 0 0 0 14.08-49.7664 65.7408 65.7408 0 0 1-5.0688-21.7088c0-31.3856 25.6-56.9344 56.9344-56.9344h2.6624c16.0256 0 28.8256-12.8512 32.5632-32.768 0.0512-0.256 5.632-29.4912 5.632-52.8896 0-22.272-5.0176-49.8176-5.632-52.8896z m-49.5104 87.6544a108.6976 108.6976 0 0 0-94.5152 107.8272c0 12.6976 3.072 24.7808 5.7856 32.9216l-47.616 26.368a190.976 190.976 0 0 0-19.6608-16.7936c-21.0432-15.616-41.472-23.552-60.6208-23.552-18.944 0-39.2192 7.7824-60.16 23.0912-8.3456 6.144-15.104 12.288-19.456 16.4864l-45.568-25.4976a108.544 108.544 0 0 0 5.7856-33.024 108.6976 108.6976 0 0 0-94.5152-107.8272 252.5696 252.5696 0 0 1-3.2768-34.816c0-11.4688 1.8944-25.856 3.2768-34.7136a108.6976 108.6976 0 0 0 94.5152-107.8272c0-12.6976-3.072-24.7296-5.7856-32.8704l49.2032-27.0336c4.3008 4.0448 11.1104 10.0864 19.5584 16.0768 20.6336 14.6944 40.5504 22.1696 59.136 22.1696 18.432 0 38.1952-7.3216 58.6752-21.76 8.3456-5.888 15.104-11.7248 19.456-15.7184l47.104 26.1632c-2.7136 8.192-5.7856 20.2752-5.7856 32.9728 0 54.9888 40.8064 100.8128 94.464 107.8272 1.3824 9.0112 3.2768 23.3984 3.2768 34.7648 0 11.4176-1.8944 25.7536-3.2768 34.816zM68.096 948.736v-56.9344c0-193.6384 149.2992-353.28 339.5584-371.2l-0.0512-0.0512h0.512c11.6224-1.0752 23.3984-1.6896 35.328-1.6896l5.376 0.1024c42.0864-3.2768 105.7792-13.1584 139.0592-42.8544l16.2816-12.6976a257.1264 257.1264 0 0 0 100.096-203.5712c0-142.848-116.992-259.072-260.8128-259.072-143.872 0-260.8128 116.224-260.8128 259.072 0 79.7184 36.5056 153.9072 100.096 203.5712l16.2816 12.6976-19.2 7.6288C110.336 551.0144 0.8704 711.168 0.8704 891.8016v90.2656c0 18.3808 15.0528 33.28 33.5872 33.28h491.1104a339.8656 339.8656 0 0 1-40.6528-66.56H68.096zM249.856 259.84c0-106.0864 86.8352-192.4096 193.536-192.4096 106.8032 0 193.6384 86.3232 193.6384 192.4096S550.1952 452.1984 443.392 452.1984 249.856 365.9264 249.856 259.84z" p-id="2575"></path></svg>