<svg t="1593779981828" class="icon" viewBox="0 0 1024 1024" version="1.1" xmlns="http://www.w3.org/2000/svg" p-id="2921" width="200" height="200"><path d="M512 512c179.2 0 330.666667 119.466667 379.733333 283.733333 17.066667 55.466667-25.6 113.066667-85.333333 113.066667H215.466667c-57.6 0-102.4-55.466667-85.333334-113.066667C179.2 631.466667 332.8 512 512 512z m0 21.333333c-2.133333 0-4.266667 0-4.266667 2.133334L448 695.466667v4.266666l59.733333 68.266667c0 2.133333 2.133333 2.133333 4.266667 2.133333s2.133333 0 4.266667-2.133333l59.733333-68.266667c2.133333-2.133333 2.133333-4.266667 0-4.266666l-59.733333-160s-2.133333-2.133333-4.266667-2.133334z m0-418.133333c108.8 0 198.4 89.6 198.4 198.4S620.8 512 512 512s-198.4-89.6-198.4-198.4 89.6-198.4 198.4-198.4z" p-id="2922"></path></svg>