<svg t="1604988779005" class="icon" viewBox="0 0 1024 1024" version="1.1" xmlns="http://www.w3.org/2000/svg" p-id="2291" width="200" height="200"><path d="M709.339429 0c60.17219 0 110.689524 41.74019 123.952761 97.865143h77.775239c47.932952 0 86.79619 38.473143 87.625142 86.162286v73.532952a299.934476 299.934476 0 0 1-97.231238 221.037714l-1.852952 1.706667-74.264381 66.950095a34.620952 34.620952 0 0 1-5.753905 4.193524 300.129524 300.129524 0 0 1-274.870857 199.68v58.514286h103.862857c87.917714 0 160.182857 67.047619 161.596953 151.405714v23.795809c0 19.017143-15.408762 34.474667-34.474667 34.474667H244.687238a34.523429 34.523429 0 0 1-34.474667-34.474667v-21.26019c0-85.528381 72.801524-153.941333 161.596953-153.941333h103.862857v-58.61181a300.129524 300.129524 0 0 1-272.091429-199.192381 35.108571 35.108571 0 0 1-5.851428-4.242286L123.465143 480.646095l-1.852953-1.706666A299.934476 299.934476 0 0 1 24.380952 257.852952V184.368762a87.625143 87.625143 0 0 1 87.625143-86.162286H189.68381A127.463619 127.463619 0 0 1 313.734095 0h395.605334zM648.533333 878.689524h-128.877714a34.523429 34.523429 0 0 1-18.968381 0H371.809524c-46.421333 0-84.260571 31.207619-91.37981 71.241143l-0.048762 0.390095h459.678477l-0.097524-0.390095c-7.021714-39.643429-44.080762-70.607238-89.819429-71.289905h-1.560381z m60.757334-809.691429H313.734095c-32.231619 0-58.368 26.185143-58.368 58.416762v323.876572a230.936381 230.936381 0 0 0 230.936381 230.936381h50.468572a230.936381 230.936381 0 0 0 230.936381-230.936381V127.414857c0-32.231619-26.136381-58.416762-58.368-58.416762zM186.270476 167.253333H111.37219a18.578286 18.578286 0 0 0-17.94438 18.529524v74.020572A230.936381 230.936381 0 0 0 169.691429 429.446095l16.627809 14.969905V167.253333z m724.748191-0.341333H836.754286v277.113905L853.333333 429.104762a230.936381 230.936381 0 0 0 76.312381-169.545143V185.490286a18.578286 18.578286 0 0 0-17.944381-18.578286h-0.633904z" p-id="2292"></path></svg>