<svg t="1593779957804" class="icon" viewBox="0 0 1024 1024" version="1.1" xmlns="http://www.w3.org/2000/svg" p-id="2674" width="200" height="200"><path d="M896 226.133333c0-4.266667 0-10.666667-2.133333-14.933333 0-4.266667-2.133333-10.666667-4.266667-14.933333 0-2.133333-2.133333-2.133333-2.133333-4.266667-2.133333-6.4-6.4-12.8-10.666667-19.2V170.666667c-2.133333 0-2.133333-2.133333-2.133333-2.133334l-6.4-6.4c-4.266667-4.266667-8.533333-8.533333-14.933334-12.8-2.133333 0-2.133333-2.133333-4.266666-2.133333s-2.133333-2.133333-4.266667-2.133333c0 0-2.133333 0-2.133333-2.133334 0 0-2.133333 0-2.133334-2.133333h-2.133333s-2.133333 0-2.133333-2.133333c-2.133333 0-4.266667-2.133333-6.4-2.133334-2.133333 0-2.133333 0-4.266667-2.133333-2.133333 0-4.266667-2.133333-6.4-2.133333-2.133333 0-4.266667-2.133333-6.4-2.133334-4.266667 0-8.533333-2.133333-12.8-2.133333h-17.066667c-4.266667 0-8.533333 0-12.8 2.133333-2.133333 0-4.266667 2.133333-6.4 2.133334-2.133333 0-4.266667 2.133333-6.4 2.133333-2.133333 0-2.133333 0-4.266666 2.133333-2.133333 0-4.266667 2.133333-6.4 2.133334 0 0-2.133333 0-2.133334 2.133333h-2.133333s-2.133333 0-2.133333 2.133333c0 0-2.133333 0-2.133334 2.133334-2.133333 0-2.133333 2.133333-4.266666 2.133333s-2.133333 2.133333-4.266667 2.133333c-6.4 4.266667-10.666667 8.533333-14.933333 12.8l-6.4 6.4-2.133334 2.133334v2.133333c-4.266667 6.4-8.533333 12.8-10.666666 19.2 0 2.133333-2.133333 2.133333-2.133334 4.266667-2.133333 4.266667-2.133333 8.533333-4.266666 14.933333 0 4.266667-2.133333 10.666667-2.133334 14.933333V238.933333c0 4.266667 0 8.533333 2.133334 12.8 0 2.133333 2.133333 4.266667 2.133333 6.4 4.266667 12.8 10.666667 25.6 19.2 36.266667 0 0 0 2.133333 2.133333 2.133333 2.133333 4.266667 6.4 6.4 10.666667 10.666667l-78.933333 230.4h-6.4c-10.666667 0-21.333333 2.133333-32 4.266667h-2.133334c-2.133333 0-2.133333 0-4.266666 2.133333-2.133333 0-4.266667 2.133333-4.266667 2.133333l-119.466667-121.6c2.133333-4.266667 4.266667-8.533333 4.266667-12.8 0-2.133333 2.133333-4.266667 2.133333-6.4 0-4.266667 2.133333-8.533333 2.133334-12.8V384v-4.266667c0-4.266667 0-10.666667-2.133334-14.933333-4.266667-25.6-21.333333-49.066667-40.533333-61.866667 0 0-2.133333 0-2.133333-2.133333-4.266667-2.133333-10.666667-6.4-14.933334-8.533333-2.133333 0-2.133333-2.133333-4.266666-2.133334s-2.133333-2.133333-4.266667-2.133333c-10.666667-4.266667-21.333333-6.4-32-6.4h-8.533333c-4.266667 0-8.533333 0-12.8 2.133333-2.133333 0-4.266667 2.133333-6.4 2.133334-2.133333 0-4.266667 2.133333-6.4 2.133333-2.133333 0-2.133333 0-4.266667 2.133333-2.133333 0-4.266667 2.133333-6.4 2.133334 0 0-2.133333 0-2.133333 2.133333h-2.133334s-2.133333 0-2.133333 2.133333c0 0-2.133333 0-2.133333 2.133334-2.133333 0-2.133333 2.133333-4.266667 2.133333s-2.133333 2.133333-4.266667 2.133333c-6.4 4.266667-10.666667 8.533333-14.933333 12.8l-6.4 6.4-2.133333 2.133334v2.133333c-4.266667 6.4-8.533333 12.8-10.666667 19.2 0 2.133333-2.133333 2.133333-2.133333 4.266667-2.133333 4.266667-2.133333 8.533333-4.266667 14.933333 0 4.266667-2.133333 10.666667-2.133333 14.933333V392.533333c0 4.266667 0 8.533333 2.133333 12.8 0 2.133333 2.133333 4.266667 2.133333 6.4 4.266667 12.8 10.666667 25.6 19.2 36.266667 0 0 0 2.133333 2.133334 2.133333 0 0 0 2.133333 2.133333 2.133334l-83.2 238.933333c-8.533333 0-19.2 2.133333-27.733333 4.266667h-2.133334c-2.133333 0-2.133333 0-4.266666 2.133333-2.133333 0-4.266667 2.133333-6.4 2.133333-2.133333 2.133333-4.266667 2.133333-6.4 4.266667 0 0-2.133333 0-2.133334 2.133333-2.133333 0-2.133333 2.133333-4.266666 2.133334s-2.133333 2.133333-4.266667 2.133333-2.133333 2.133333-4.266667 2.133333c0 0-2.133333 0-2.133333 2.133334-2.133333 2.133333-4.266667 2.133333-6.4 4.266666l-2.133333 2.133334-4.266667 4.266666c-2.133333 2.133333-2.133333 2.133333-2.133333 4.266667-2.133333 2.133333-4.266667 4.266667-6.4 8.533333-4.266667 6.4-6.4 10.666667-8.533334 17.066667 0 2.133333-2.133333 2.133333-2.133333 4.266667s-2.133333 2.133333-2.133333 4.266666-2.133333 6.4-2.133334 10.666667-2.133333 6.4-2.133333 10.666667v10.666666c0 55.466667 44.8 102.4 102.4 102.4s102.4-44.8 102.4-102.4v-10.666666c0-4.266667 0-6.4-2.133333-10.666667 0-4.266667-2.133333-6.4-2.133334-10.666667 0-2.133333 0-2.133333-2.133333-4.266666 0-2.133333-2.133333-2.133333-2.133333-4.266667-2.133333-6.4-6.4-12.8-8.533334-17.066667-2.133333-2.133333-4.266667-6.4-6.4-8.533333 0-2.133333-2.133333-2.133333-2.133333-4.266667l-4.266667-4.266666-2.133333-2.133334s-2.133333-2.133333-4.266667-2.133333l78.933334-230.4h6.4c12.8 0 23.466667-2.133333 34.133333-6.4 2.133333 0 2.133333 0 4.266667-2.133333l121.6 123.733333v2.133333c0 2.133333-2.133333 2.133333-2.133334 4.266667s-2.133333 6.4-2.133333 10.666667-2.133333 6.4-2.133333 10.666666v10.666667c0 55.466667 44.8 102.4 102.4 102.4s102.4-44.8 102.4-102.4v-10.666667c0-4.266667 0-6.4-2.133334-10.666666 0-4.266667-2.133333-6.4-2.133333-10.666667 0-2.133333 0-2.133333-2.133333-4.266667 0-2.133333-2.133333-2.133333-2.133334-4.266666-2.133333-6.4-6.4-12.8-8.533333-17.066667-2.133333-2.133333-4.266667-6.4-6.4-8.533333l-2.133333-2.133334 83.2-238.933333h2.133333c4.266667 0 8.533333 0 12.8-2.133333 2.133333 0 4.266667-2.133333 6.4-2.133334 12.8-4.266667 25.6-10.666667 36.266667-19.2 0 0 2.133333 0 2.133333-2.133333 4.266667-2.133333 6.4-6.4 10.666667-10.666667 0 0 0-2.133333 2.133333-2.133333 8.533333-10.666667 14.933333-23.466667 19.2-36.266667 0-2.133333 2.133333-4.266667 2.133333-6.4 0-4.266667 2.133333-8.533333 2.133334-12.8v-8.533333c8.533333-2.133333 8.533333-4.266667 8.533333-4.266667z" p-id="2675"></path></svg>